<?xml version="1.0" encoding="UTF-8" standalone="no"?>
<!-- Created with Inkscape (http://www.inkscape.org/) -->

<svg
   width="1024"
   height="384"
   viewBox="0 0 1024 384"
   version="1.1"
   id="svg5"
   xml:space="preserve"
   inkscape:version="1.2.2 (b0a8486541, 2022-12-01)"
   sodipodi:docname="preview.svg"
   inkscape:export-filename="./preview.png"
   inkscape:export-xdpi="96"
   inkscape:export-ydpi="96"
   xmlns:inkscape="http://www.inkscape.org/namespaces/inkscape"
   xmlns:sodipodi="http://sodipodi.sourceforge.net/DTD/sodipodi-0.dtd"
   xmlns="http://www.w3.org/2000/svg"
   xmlns:svg="http://www.w3.org/2000/svg"><sodipodi:namedview
     id="namedview7"
     pagecolor="#ffffff"
     bordercolor="#000000"
     borderopacity="0.25"
     inkscape:showpageshadow="false"
     inkscape:pageopacity="0.0"
     inkscape:pagecheckerboard="true"
     inkscape:deskcolor="#282828"
     inkscape:document-units="px"
     showgrid="false"
     inkscape:zoom="0.62011719"
     inkscape:cx="512"
     inkscape:cy="191.89921"
     inkscape:window-width="1280"
     inkscape:window-height="731"
     inkscape:window-x="0"
     inkscape:window-y="0"
     inkscape:window-maximized="1"
     inkscape:current-layer="layer1"><inkscape:grid
       type="xygrid"
       id="grid1209"
       empspacing="4"
       originx="0"
       originy="0" /></sodipodi:namedview><defs
     id="defs2" /><g
     inkscape:label="Слой 1"
     inkscape:groupmode="layer"
     id="layer1"><g
       id="g1519"
       transform="translate(-1034)"><rect
         style="display:none;opacity:0.2;fill:#9141ac;fill-opacity:1;stroke-width:16;stroke-linecap:square;stroke-linejoin:round;stroke-opacity:0.129412;paint-order:markers stroke fill"
         id="rect1207"
         width="128"
         height="128"
         x="1034"
         y="0" /><path
         d="M 1055.9766,12 C 1050.4492,12 1046,16.460938 1046,22 v 86.03125 c 0,5.54297 4.4492,10 9.9766,10 h 84.0429 c 5.5313,0 9.9805,-4.45703 9.9805,-10 V 35.945312 c 0,-6.628906 -5.3594,-12 -11.9727,-12 H 1092 c -2.4531,0 -4.6953,-1.386718 -5.7969,-3.582031 l -1.5039,-2.992187 C 1083.043,14.078125 1079.6797,12 1076,12 Z m 0,0"
         fill="#438de6"
         id="path208" /><path
         d="m 1099.9766,36 c -2.7461,0 -5.2266,1.101562 -7.0274,2.890625 C 1090.6758,41.144531 1087.5664,44 1084.3164,44 h -28.3398 C 1050.4492,44 1046,48.460938 1046,54 v 54.03125 c 0,5.54297 4.4492,10 9.9766,10 h 84.0429 c 5.5313,0 9.9805,-4.45703 9.9805,-10 V 46 c 0,-5.539062 -4.4492,-10 -9.9805,-10 z m 0,0"
         fill="url(#a)"
         id="path210" /><path
         d="m 1099.9766,32 c -2.7461,0 -5.2266,1.101562 -7.0274,2.890625 C 1090.6758,37.144531 1087.5664,40 1084.3164,40 h -28.3398 C 1050.4492,40 1046,44.460938 1046,50 v 55.97656 c 0,5.53907 4.4492,10 9.9766,10 h 84.0429 c 5.5313,0 9.9805,-4.46093 9.9805,-10 V 42 c 0,-5.539062 -4.4492,-10 -9.9805,-10 z m 0,0"
         fill="#a4caee"
         id="path212" /><g
         fill="#438de6"
         id="g218"
         transform="translate(1034)"><path
           d="M 60.859375,72 C 60.382812,72.03125 60,72.421875 60,72.914062 V 73.09375 C 60,73.601562 60.40625,74 60.90625,74 h 0.1875 C 61.59375,74 62,73.601562 62,73.09375 V 72.914062 C 62,72.40625 61.59375,72 61.09375,72 h -0.1875 c -0.01563,0 -0.03125,0 -0.04687,0 z m 6.09375,0 C 66.421875,72.03125 66,72.46875 66,73 c 0,0.554688 0.445312,1 1,1 0.554688,0 1,-0.445312 1,-1 0,-0.546875 -0.445312,-1 -1,-1 -0.01563,0 -0.03125,0 -0.05469,0 z m -4.867187,2.5 v 1 c 0,1.109375 2,3 2,3 0,0 2,-1.890625 2,-3 v -1 z m 0,0"
           id="path214" /><path
           d="m 64.0625,62.007812 c -3.476562,0 -5.867188,1.039063 -7.875,3 -1.929688,1.875 -2.617188,4.351563 -3.0625,7.5 0,0 -0.476562,2.59375 0.125,3.6875 -0.984375,1.171876 -5.1875,6.4375 -5.1875,8.8125 0.734375,2.28125 4.585938,-2.953124 5.25,0.0625 0.570312,2.5625 1.710938,3.5625 4.0625,5 -1.867188,0.164063 -3.3125,0.953126 -3.3125,1.9375 2.328125,1.429688 2.476562,1.625 4.875,1.625 2.210938,0 3.125,-0.523437 3.125,-1.625 0,-0.07031 0.01563,-0.125 0,-0.1875 0.664062,0.101563 1.320312,0.1875 2,0.1875 0.679688,0 1.335938,-0.08594 2,-0.1875 -0.01563,0.0625 0,0.117188 0,0.1875 0,1.101563 0.914062,1.625 3.125,1.625 2.398438,0 2.546875,-0.195312 4.875,-1.625 0,-0.984374 -1.445312,-1.773437 -3.3125,-1.9375 2.351562,-1.4375 3.492188,-2.4375 4.0625,-5 0.664062,-3.015624 4.515625,2.21875 5.25,-0.0625 0,-2.375 -4.203125,-7.640624 -5.1875,-8.8125 0.601562,-1.09375 0.125,-3.6875 0.125,-3.6875 -0.445312,-3.148437 -1.132812,-5.625 -3.0625,-7.5 -2.007812,-1.960937 -4.398438,-3 -7.875,-3 z M 62,65.820312 c 1.070312,0.234376 1.195312,2.1875 2.0625,2.1875 0.867188,0 0.992188,-1.953124 2.0625,-2.1875 6.289062,0.289063 6.585938,8.804688 5.0625,10.5625 0,0 2.015625,3.71875 1.125,6.5625 -1.289062,4.09375 -3.820312,6.0625 -8.25,6.0625 -4.429688,0 -6.960938,-1.96875 -8.25,-6.0625 -0.890625,-2.84375 1.125,-6.5625 1.125,-6.5625 C 55.414062,74.625 55.710938,66.109375 62,65.820312 Z m 0,0"
           id="path216" /></g></g><g
       id="g1509"
       transform="translate(-1044)"><rect
         style="display:none;opacity:0.2;fill:#9141ac;fill-opacity:1;stroke-width:16;stroke-linecap:square;stroke-linejoin:round;stroke-opacity:0.129412;paint-order:markers stroke fill"
         id="rect1275"
         width="128"
         height="128"
         x="1172"
         y="0" /><path
         d="M 1193.9766,12 C 1188.4492,12 1184,16.460938 1184,22 v 86.03125 c 0,5.54297 4.4492,10 9.9766,10 h 84.0429 c 5.5313,0 9.9805,-4.45703 9.9805,-10 V 35.945312 c 0,-6.628906 -5.3594,-12 -11.9727,-12 H 1230 c -2.4531,0 -4.6953,-1.386718 -5.7969,-3.582031 l -1.5039,-2.992187 C 1221.043,14.078125 1217.6797,12 1214,12 Z m 0,0"
         fill="#438de6"
         id="path251" /><path
         d="m 1237.9766,36 c -2.7461,0 -5.2266,1.101562 -7.0274,2.890625 C 1228.6758,41.144531 1225.5664,44 1222.3164,44 h -28.3398 C 1188.4492,44 1184,48.460938 1184,54 v 54.03125 c 0,5.54297 4.4492,10 9.9766,10 h 84.0429 c 5.5313,0 9.9805,-4.45703 9.9805,-10 V 46 c 0,-5.539062 -4.4492,-10 -9.9805,-10 z m 0,0"
         fill="url(#a)"
         id="path253" /><path
         d="m 1237.9766,32 c -2.7461,0 -5.2266,1.101562 -7.0274,2.890625 C 1228.6758,37.144531 1225.5664,40 1222.3164,40 h -28.3398 C 1188.4492,40 1184,44.460938 1184,50 v 55.97656 c 0,5.53907 4.4492,10 9.9766,10 h 84.0429 c 5.5313,0 9.9805,-4.46093 9.9805,-10 V 42 c 0,-5.539062 -4.4492,-10 -9.9805,-10 z m 0,0"
         fill="#a4caee"
         id="path255" /><g
         fill="#438de6"
         id="g267"
         transform="translate(1172)"><path
           d="M 72.382812,66 H 75.625 c 2.40625,0 4.359375,1.953125 4.359375,4.359375 v 3.28125 C 79.984375,76.046875 78.03125,78 75.625,78 h -3.242188 c -2.40625,0 -4.359374,-1.953125 -4.359374,-4.359375 v -3.28125 C 68.023438,67.953125 69.976562,66 72.382812,66 Z m 0,0"
           id="path257" /><path
           d="m 79.976562,73.226562 v 13.976563 c 0,2.640625 -2.140624,4.773437 -4.773437,4.773437 H 58.007812 C 56.898438,91.976562 56,91.078125 56,89.96875 V 89.085938 C 56,85.171875 59.171875,82 63.085938,82 h 4.695312 c 2.28125,0 4.132812,-1.851562 4.132812,-4.125 v -4.703125 z m 0,0"
           id="path259" /><path
           d="M 67.984375,69.929688 V 61.90625 l 4.25,4.03125 z m 0,0"
           id="path261" /><path
           d="M 79.984375,69.929688 V 61.90625 L 76.0625,65.9375 Z m 0,0"
           id="path263" /><path
           d="M 59.757812,88 H 53.960938 C 52.890625,88 52,87.109375 52,86.039062 V 85.71875 c 0,-2.078125 0.851562,-4.0625 2.351562,-5.5 l 3.609376,-3.453125 c 1.34375,-1.28125 2.101562,-3.0625 2.101562,-4.914063 V 71.34375 C 60.0625,68.382812 57.679688,66 54.71875,66 h -2.929688 c -1.101562,0 -2,0.890625 -2,2 0,1.101562 0.898438,2 2,2 h 2.929688 c 0.734375,0 1.34375,0.609375 1.34375,1.34375 v 0.507812 c 0,0.765626 -0.3125,1.492188 -0.859375,2.023438 l -3.617187,3.453125 C 49.296875,79.515625 48,82.546875 48,85.71875 v 0.320312 C 48,89.34375 50.65625,92 53.960938,92 h 5.796874 c 1.101563,0 2,-0.898438 2,-2 0,-1.101562 -0.898437,-2 -2,-2 z m 0,0"
           id="path265" /></g></g><g
       id="g1496"
       transform="translate(-1054)"><rect
         style="display:none;opacity:0.2;fill:#9141ac;fill-opacity:1;stroke-width:16;stroke-linecap:square;stroke-linejoin:round;stroke-opacity:0.129412;paint-order:markers stroke fill"
         id="rect1277"
         width="128"
         height="128"
         x="1310"
         y="0" /><path
         d="M 1331.9766,12 C 1326.4492,12 1322,16.460938 1322,22 v 86.03125 c 0,5.54297 4.4492,10 9.9766,10 h 84.0429 c 5.5313,0 9.9805,-4.45703 9.9805,-10 V 35.945312 c 0,-6.628906 -5.3594,-12 -11.9727,-12 H 1368 c -2.4531,0 -4.6953,-1.386718 -5.7969,-3.582031 l -1.5039,-2.992187 C 1359.043,14.078125 1355.6797,12 1352,12 Z m 0,0"
         fill="#438de6"
         id="path301" /><path
         d="m 1375.9766,36 c -2.7461,0 -5.2266,1.101562 -7.0274,2.890625 C 1366.6758,41.144531 1363.5664,44 1360.3164,44 h -28.3398 C 1326.4492,44 1322,48.460938 1322,54 v 54.03125 c 0,5.54297 4.4492,10 9.9766,10 h 84.0429 c 5.5313,0 9.9805,-4.45703 9.9805,-10 V 46 c 0,-5.539062 -4.4492,-10 -9.9805,-10 z m 0,0"
         fill="url(#a)"
         id="path303" /><path
         d="m 1375.9766,32 c -2.7461,0 -5.2266,1.101562 -7.0274,2.890625 C 1366.6758,37.144531 1363.5664,40 1360.3164,40 h -28.3398 C 1326.4492,40 1322,44.460938 1322,50 v 55.97656 c 0,5.53907 4.4492,10 9.9766,10 h 84.0429 c 5.5313,0 9.9805,-4.46093 9.9805,-10 V 42 c 0,-5.539062 -4.4492,-10 -9.9805,-10 z m 0,0"
         fill="#a4caee"
         id="path305" /><g
         fill="#438de6"
         id="g319"
         transform="translate(1310)"><path
           d="m 58,73.992188 c -4.414062,0 -7.984375,3.570312 -7.984375,7.984374 0,4.421876 3.570313,7.984376 7.984375,7.984376 h 12 c 4.414062,0 7.984375,-3.5625 7.984375,-7.984376 0,-4.414062 -3.570313,-7.984374 -7.984375,-7.984374 z m 0,2 h 12 c 3.351562,0 5.984375,2.632812 5.984375,5.984374 0,3.359376 -2.632813,5.984376 -5.984375,5.984376 H 58 c -3.351562,0 -5.984375,-2.625 -5.984375,-5.984376 0,-3.351562 2.632813,-5.984374 5.984375,-5.984374 z m 0,0"
           fill-rule="evenodd"
           id="path307" /><path
           d="m 56,79.976562 c -0.554688,0 -1,0.453126 -1,1 0,1.164063 0.773438,2.164063 1.828125,2.65625 1.054687,0.492188 2.289063,0.492188 3.34375,0 C 61.226562,83.140625 62,82.140625 62,80.976562 c 0,-0.546874 -0.445312,-1 -1,-1 -0.554688,0 -1,0.453126 -1,1 0,0.28125 -0.179688,0.609376 -0.671875,0.835938 -0.492187,0.234375 -1.164063,0.234375 -1.65625,0 C 57.179688,81.585938 57,81.257812 57,80.976562 c 0,-0.546874 -0.445312,-1 -1,-1 z m 0,0"
           fill-rule="evenodd"
           id="path309" /><path
           d="m 66.984375,79.976562 c -0.554687,0 -1,0.453126 -1,1 0,1.164063 0.773437,2.164063 1.828125,2.65625 1.054688,0.492188 2.28125,0.492188 3.335938,0 1.0625,-0.492187 1.828124,-1.492187 1.828124,-2.65625 0,-0.546874 -0.445312,-1 -1,-1 -0.546874,0 -1,0.453126 -1,1 0,0.28125 -0.171874,0.609376 -0.664062,0.835938 -0.492188,0.234375 -1.164062,0.234375 -1.65625,0 -0.492188,-0.226562 -0.671875,-0.554688 -0.671875,-0.835938 0,-0.546874 -0.445313,-1 -1,-1 z m 0,0"
           fill-rule="evenodd"
           id="path311" /><path
           d="M 57.84375,62.0625 49.21875,77 C 48.664062,77.953125 49,79.179688 49.953125,79.726562 50.90625,80.28125 52.132812,79.953125 52.6875,79 l 5.132812,-8.898438 2.78125,4.867188 c 0.546876,0.960938 1.765626,1.296875 2.726563,0.75 0.960937,-0.546875 1.289063,-1.765625 0.75,-2.726562 z m 0,0"
           id="path313" /><path
           d="m 70.046875,62.0625 -6.226563,10.929688 c -0.546874,0.960937 -0.210937,2.179687 0.742188,2.726562 0.960938,0.546875 2.179688,0.210938 2.726562,-0.75 L 70.078125,70.101562 75.210938,79 c 0.554687,0.953125 1.773437,1.28125 2.726562,0.726562 C 78.898438,79.179688 79.226562,77.953125 78.671875,77 Z m 0,0"
           id="path315" /><path
           d="M 49.414062,76.835938 C 48.515625,78.335938 48,80.101562 48,81.976562 c 0,5.507813 4.492188,10 10,10 h 12 c 5.507812,0 10,-4.492187 10,-10 0,-1.835937 -0.5,-3.578124 -1.375,-5.070312 L 75.171875,78.9375 C 75.695312,79.828125 76,80.859375 76,81.976562 c 0,3.359376 -2.640625,6 -6,6 H 58 c -3.359375,0 -6,-2.640624 -6,-6 0,-1.140624 0.3125,-2.1875 0.851562,-3.085937 z m 0,0"
           fill-rule="evenodd"
           id="path317" /></g></g><g
       id="g1482"
       transform="translate(-1064)"><rect
         style="display:none;opacity:0.2;fill:#9141ac;fill-opacity:1;stroke-width:16;stroke-linecap:square;stroke-linejoin:round;stroke-opacity:0.129412;paint-order:markers stroke fill"
         id="rect1279"
         width="128"
         height="128"
         x="1448"
         y="0" /><path
         d="M 1469.9766,12 C 1464.4492,12 1460,16.460938 1460,22 v 86.03125 c 0,5.54297 4.4492,10 9.9766,10 h 84.0429 c 5.5313,0 9.9805,-4.45703 9.9805,-10 V 35.945312 c 0,-6.628906 -5.3594,-12 -11.9727,-12 H 1506 c -2.4531,0 -4.6953,-1.386718 -5.7969,-3.582031 l -1.5039,-2.992187 C 1497.043,14.078125 1493.6797,12 1490,12 Z m 0,0"
         fill="#438de6"
         id="path354" /><path
         d="m 1513.9766,36 c -2.7461,0 -5.2266,1.101562 -7.0274,2.890625 C 1504.6758,41.144531 1501.5664,44 1498.3164,44 h -28.3398 C 1464.4492,44 1460,48.460938 1460,54 v 54.03125 c 0,5.54297 4.4492,10 9.9766,10 h 84.0429 c 5.5313,0 9.9805,-4.45703 9.9805,-10 V 46 c 0,-5.539062 -4.4492,-10 -9.9805,-10 z m 0,0"
         fill="url(#a)"
         id="path356" /><path
         d="m 1513.9766,32 c -2.7461,0 -5.2266,1.101562 -7.0274,2.890625 C 1504.6758,37.144531 1501.5664,40 1498.3164,40 h -28.3398 C 1464.4492,40 1460,44.460938 1460,50 v 55.97656 c 0,5.53907 4.4492,10 9.9766,10 h 84.0429 c 5.5313,0 9.9805,-4.46093 9.9805,-10 V 42 c 0,-5.539062 -4.4492,-10 -9.9805,-10 z m 0,0"
         fill="#a4caee"
         id="path358" /><path
         d="m 1516,68 c -3.125,0.0078 -5.9609,1.828125 -7.2578,4.664062 C 1507.8906,72.234375 1506.9531,72 1506,72 c -3.3125,0 -6,2.6875 -6,6 0,0.695312 0.125,1.390625 0.3672,2.046875 -2.5,0.320313 -4.3672,2.4375 -4.3672,4.953125 0,2.757812 2.2422,5 5,5 h 21 c 3.3125,0 6,-2.6875 6,-6 0,-2.664062 -1.7656,-5.007812 -4.3203,-5.75 0.2109,-0.734375 0.3203,-1.492188 0.3203,-2.25 0,-4.421875 -3.5781,-8 -8,-8 z m 0,0"
         fill="#438de6"
         id="path360" /></g><g
       id="g1474"
       transform="translate(-1074)"><rect
         style="display:none;opacity:0.2;fill:#9141ac;fill-opacity:1;stroke-width:16;stroke-linecap:square;stroke-linejoin:round;stroke-opacity:0.129412;paint-order:markers stroke fill"
         id="rect1281"
         width="128"
         height="128"
         x="1586"
         y="0" /><path
         d="M 1607.9766,12 C 1602.4492,12 1598,16.460938 1598,22 v 86.03125 c 0,5.54297 4.4492,10 9.9766,10 h 84.0429 c 5.5313,0 9.9805,-4.45703 9.9805,-10 V 35.945312 c 0,-6.628906 -5.3594,-12 -11.9727,-12 H 1644 c -2.4531,0 -4.6953,-1.386718 -5.7969,-3.582031 l -1.5039,-2.992187 C 1635.043,14.078125 1631.6797,12 1628,12 Z m 0,0"
         fill="#438de6"
         id="path389" /><path
         d="m 1651.9766,36 c -2.7461,0 -5.2266,1.101562 -7.0274,2.890625 C 1642.6758,41.144531 1639.5664,44 1636.3164,44 h -28.3398 C 1602.4492,44 1598,48.460938 1598,54 v 54.03125 c 0,5.54297 4.4492,10 9.9766,10 h 84.0429 c 5.5313,0 9.9805,-4.45703 9.9805,-10 V 46 c 0,-5.539062 -4.4492,-10 -9.9805,-10 z m 0,0"
         fill="url(#a)"
         id="path391" /><path
         d="m 1651.9766,32 c -2.7461,0 -5.2266,1.101562 -7.0274,2.890625 C 1642.6758,37.144531 1639.5664,40 1636.3164,40 h -28.3398 C 1602.4492,40 1598,44.460938 1598,50 v 55.97656 c 0,5.53907 4.4492,10 9.9766,10 h 84.0429 c 5.5313,0 9.9805,-4.46093 9.9805,-10 V 42 c 0,-5.539062 -4.4492,-10 -9.9805,-10 z m 0,0"
         fill="#a4caee"
         id="path393" /><path
         d="m 1641,66 c -3.3203,0 -5.6016,2 -6,6 0,0 -1,6 -1,10 0,0 0,6 6.0625,6 C 1646,88 1646,82 1646,82 c 0,-3 2.1016,-4.007812 4,-4 1.8828,0.0078 4,1 4.0625,4 0,0 -0.062,6 5.9375,6 6,0 6,-6 6,-6 0.062,-4 -1,-10 -1,-10 -0.3281,-3.304688 -2.6797,-6 -6,-6 z m 1.5,4 h 1 c 0.2734,0 0.5,0.226562 0.5,0.5 V 72 h 1.5 c 0.2734,0 0.5,0.226562 0.5,0.5 v 1 c 0,0.273438 -0.2266,0.5 -0.5,0.5 h -1.5 v 1.5 c 0,0.273438 -0.2266,0.5 -0.5,0.5 h -1 c -0.2734,0 -0.5,-0.226562 -0.5,-0.5 V 74 h -1.5 c -0.2734,0 -0.5,-0.226562 -0.5,-0.5 v -1 c 0,-0.273438 0.2266,-0.5 0.5,-0.5 h 1.5 v -1.5 c 0,-0.273438 0.2266,-0.5 0.5,-0.5 z m 11.5,0 c 1.1016,0 2,0.898438 2,2 0,1.101562 -0.8984,2 -2,2 -1.1016,0 -2,-0.898438 -2,-2 0,-1.101562 0.8984,-2 2,-2 z m 6,4 c 1.1016,0 2,0.898438 2,2 0,1.101562 -0.8984,2 -2,2 -1.1016,0 -2,-0.898438 -2,-2 0,-1.101562 0.8984,-2 2,-2 z m 0,0"
         fill="#438de6"
         id="path395" /></g><g
       id="g1466"
       transform="translate(-1084)"><rect
         style="display:none;opacity:0.2;fill:#9141ac;fill-opacity:1;stroke-width:16;stroke-linecap:square;stroke-linejoin:round;stroke-opacity:0.129412;paint-order:markers stroke fill"
         id="rect1283"
         width="128"
         height="128"
         x="1724"
         y="0" /><path
         d="M 1745.9766,12 C 1740.4492,12 1736,16.460938 1736,22 v 86.03125 c 0,5.54297 4.4492,10 9.9766,10 h 84.0429 c 5.5313,0 9.9805,-4.45703 9.9805,-10 V 35.945312 c 0,-6.628906 -5.3594,-12 -11.9727,-12 H 1782 c -2.4531,0 -4.6953,-1.386718 -5.7969,-3.582031 l -1.5039,-2.992187 C 1773.043,14.078125 1769.6797,12 1766,12 Z m 0,0"
         fill="#438de6"
         id="path424" /><path
         d="m 1789.9766,36 c -2.7461,0 -5.2266,1.101562 -7.0274,2.890625 C 1780.6758,41.144531 1777.5664,44 1774.3164,44 h -28.3398 C 1740.4492,44 1736,48.460938 1736,54 v 54.03125 c 0,5.54297 4.4492,10 9.9766,10 h 84.0429 c 5.5313,0 9.9805,-4.45703 9.9805,-10 V 46 c 0,-5.539062 -4.4492,-10 -9.9805,-10 z m 0,0"
         fill="url(#a)"
         id="path426" /><path
         d="m 1789.9766,32 c -2.7461,0 -5.2266,1.101562 -7.0274,2.890625 C 1780.6758,37.144531 1777.5664,40 1774.3164,40 h -28.3398 C 1740.4492,40 1736,44.460938 1736,50 v 55.97656 c 0,5.53907 4.4492,10 9.9766,10 h 84.0429 c 5.5313,0 9.9805,-4.46093 9.9805,-10 V 42 c 0,-5.539062 -4.4492,-10 -9.9805,-10 z m 0,0"
         fill="#a4caee"
         id="path428" /><g
         fill="#438de6"
         id="g434"
         transform="translate(1724)"><path
           d="m 71,62 c -4.96875,0 -9,4.03125 -9,9 0,4.96875 4.03125,9 9,9 4.96875,0 9,-4.03125 9,-9 0,-1.148438 -0.21875,-2.289062 -0.648438,-3.351562 L 75,72 h -5 v -5 l 4.351562,-4.351562 C 73.289062,62.21875 72.148438,62 71,62 Z m 0,0"
           id="path430" /><path
           d="m 63.460938,71.46875 -14,14 C 48.523438,86.40625 48,87.671875 48,89 c 0,1.328125 0.523438,2.601562 1.460938,3.539062 1.953124,1.945313 5.125,1.945313 7.078124,0 l 14,-14 z M 53,87 c 1.101562,0 2,0.898438 2,2 0,1.101562 -0.898438,2 -2,2 -1.101562,0 -2,-0.898438 -2,-2 0,-1.101562 0.898438,-2 2,-2 z m 0,0"
           id="path432" /></g></g><g
       id="g1456"
       transform="translate(-1094)"><rect
         style="display:none;opacity:0.2;fill:#9141ac;fill-opacity:1;stroke-width:16;stroke-linecap:square;stroke-linejoin:round;stroke-opacity:0.129412;paint-order:markers stroke fill"
         id="rect1285"
         width="128"
         height="128"
         x="1862"
         y="0" /><path
         d="M 1883.9766,12 C 1878.4492,12 1874,16.460938 1874,22 v 86.03125 c 0,5.54297 4.4492,10 9.9766,10 h 84.0429 c 5.5313,0 9.9805,-4.45703 9.9805,-10 V 35.945312 c 0,-6.628906 -5.3594,-12 -11.9727,-12 H 1920 c -2.4531,0 -4.6953,-1.386718 -5.7969,-3.582031 l -1.5039,-2.992187 C 1911.043,14.078125 1907.6797,12 1904,12 Z m 0,0"
         fill="#438de6"
         id="path465" /><path
         d="m 1927.9766,36 c -2.7461,0 -5.2266,1.101562 -7.0274,2.890625 C 1918.6758,41.144531 1915.5664,44 1912.3164,44 h -28.3398 C 1878.4492,44 1874,48.460938 1874,54 v 54.03125 c 0,5.54297 4.4492,10 9.9766,10 h 84.0429 c 5.5313,0 9.9805,-4.45703 9.9805,-10 V 46 c 0,-5.539062 -4.4492,-10 -9.9805,-10 z m 0,0"
         fill="url(#a)"
         id="path467" /><path
         d="m 1927.9766,32 c -2.7461,0 -5.2266,1.101562 -7.0274,2.890625 C 1918.6758,37.144531 1915.5664,40 1912.3164,40 h -28.3398 C 1878.4492,40 1874,44.460938 1874,50 v 55.97656 c 0,5.53907 4.4492,10 9.9766,10 h 84.0429 c 5.5313,0 9.9805,-4.46093 9.9805,-10 V 42 c 0,-5.539062 -4.4492,-10 -9.9805,-10 z m 0,0"
         fill="#a4caee"
         id="path469" /><g
         fill="#438de6"
         id="g477"
         transform="translate(1862)"><path
           d="m 76,68 v 4 H 52 v -4 z m -28,0 v 4 c 0,2.21875 1.78125,4 4,4 h 24 c 2.21875,0 4,-1.78125 4,-4 v -4 c 0,-2.21875 -1.78125,-4 -4,-4 H 52 c -2.21875,0 -4,1.78125 -4,4 z m 0,0"
           id="path471" /><path
           d="M 74,76 V 90 H 54 V 76 Z m -24,0 v 14 c 0,2.21875 1.78125,4 4,4 h 20 c 2.21875,0 4,-1.78125 4,-4 V 76 c 0,-2.21875 -1.78125,-4 -4,-4 H 54 c -2.21875,0 -4,1.78125 -4,4 z m 0,0"
           id="path473" /><path
           d="m 60,78 h 8 v 2 h -8 z m 0,0"
           id="path475" /></g></g><g
       id="g1445"
       transform="translate(-1104)"><rect
         style="display:none;opacity:0.2;fill:#9141ac;fill-opacity:1;stroke-width:16;stroke-linecap:square;stroke-linejoin:round;stroke-opacity:0.129412;paint-order:markers stroke fill"
         id="rect1287"
         width="128"
         height="128"
         x="2000"
         y="0" /><path
         d="M 2021.9766,12 C 2016.4492,12 2012,16.460938 2012,22 v 86.03125 c 0,5.54297 4.4492,10 9.9766,10 h 84.0429 c 5.5313,0 9.9805,-4.45703 9.9805,-10 V 35.945312 c 0,-6.628906 -5.3594,-12 -11.9727,-12 H 2058 c -2.4531,0 -4.6953,-1.386718 -5.7969,-3.582031 l -1.5039,-2.992187 C 2049.043,14.078125 2045.6797,12 2042,12 Z m 0,0"
         fill="#438de6"
         id="path509" /><path
         d="m 2065.9766,36 c -2.7461,0 -5.2266,1.101562 -7.0274,2.890625 C 2056.6758,41.144531 2053.5664,44 2050.3164,44 h -28.3398 C 2016.4492,44 2012,48.460938 2012,54 v 54.03125 c 0,5.54297 4.4492,10 9.9766,10 h 84.0429 c 5.5313,0 9.9805,-4.45703 9.9805,-10 V 46 c 0,-5.539062 -4.4492,-10 -9.9805,-10 z m 0,0"
         fill="url(#a)"
         id="path511" /><path
         d="m 2065.9766,32 c -2.7461,0 -5.2266,1.101562 -7.0274,2.890625 C 2056.6758,37.144531 2053.5664,40 2050.3164,40 h -28.3398 C 2016.4492,40 2012,44.460938 2012,50 v 55.97656 c 0,5.53907 4.4492,10 9.9766,10 h 84.0429 c 5.5313,0 9.9805,-4.46093 9.9805,-10 V 42 c 0,-5.539062 -4.4492,-10 -9.9805,-10 z m 0,0"
         fill="#a4caee"
         id="path513" /><g
         fill="#438de6"
         id="g521"
         transform="translate(2000)"><path
           d="m 58.382812,64.59375 c -0.78125,-0.78125 -2.046874,-0.78125 -2.828124,0 l -5,5 c -0.78125,0.78125 -0.78125,2.046875 0,2.828125 l 5,5 c 0.78125,0.78125 2.046874,0.78125 2.828124,0 l 4.992188,-5 c 0.78125,-0.78125 0.78125,-2.046875 0,-2.828125 z m 0,0"
           id="path515" /><path
           d="m 67.96875,86.007812 c 0,3.3125 -2.6875,6 -6,6 -3.320312,0 -6,-2.6875 -6,-6 0,-3.3125 2.679688,-6 6,-6 3.3125,0 6,2.6875 6,6 z m 0,0"
           id="path517" /><path
           d="m 71.859375,66.015625 c -0.679687,0.03125 -1.289063,0.40625 -1.625,0.992187 l -4.640625,8 c -0.773438,1.328126 0.1875,3 1.726562,3 h 9.289063 c 1.539063,0 2.5,-1.671874 1.726563,-3 l -4.640626,-8 c -0.375,-0.65625 -1.085937,-1.039062 -1.835937,-0.992187 z m 0,0"
           id="path519" /></g></g><g
       id="g1434"
       transform="translate(-2138,128)"><rect
         style="display:none;opacity:0.2;fill:#9141ac;fill-opacity:1;stroke-width:16;stroke-linecap:square;stroke-linejoin:round;stroke-opacity:0.129412;paint-order:markers stroke fill"
         id="rect1289"
         width="128"
         height="128"
         x="2138"
         y="0" /><path
         d="M 2159.9766,12 C 2154.4492,12 2150,16.460938 2150,22 v 86.03125 c 0,5.54297 4.4492,10 9.9766,10 h 84.0429 c 5.5313,0 9.9805,-4.45703 9.9805,-10 V 35.945312 c 0,-6.628906 -5.3594,-12 -11.9727,-12 H 2196 c -2.4531,0 -4.6953,-1.386718 -5.7969,-3.582031 l -1.5039,-2.992187 C 2187.043,14.078125 2183.6797,12 2180,12 Z m 0,0"
         fill="#438de6"
         id="path553" /><path
         d="m 2203.9766,36 c -2.7461,0 -5.2266,1.101562 -7.0274,2.890625 C 2194.6758,41.144531 2191.5664,44 2188.3164,44 h -28.3398 C 2154.4492,44 2150,48.460938 2150,54 v 54.03125 c 0,5.54297 4.4492,10 9.9766,10 h 84.0429 c 5.5313,0 9.9805,-4.45703 9.9805,-10 V 46 c 0,-5.539062 -4.4492,-10 -9.9805,-10 z m 0,0"
         fill="url(#a)"
         id="path555" /><path
         d="m 2203.9766,32 c -2.7461,0 -5.2266,1.101562 -7.0274,2.890625 C 2194.6758,37.144531 2191.5664,40 2188.3164,40 h -28.3398 C 2154.4492,40 2150,44.460938 2150,50 v 55.97656 c 0,5.53907 4.4492,10 9.9766,10 h 84.0429 c 5.5313,0 9.9805,-4.46093 9.9805,-10 V 42 c 0,-5.539062 -4.4492,-10 -9.9805,-10 z m 0,0"
         fill="#a4caee"
         id="path557" /><path
         d="M 2190.3984,62 C 2187.8906,62 2186,64.203125 2186,66.632812 V 70 h 4 V 66.632812 C 2190,66.148438 2190.25,66 2190.3984,66 H 2194 V 62 Z M 2198,62 v 4 h 8 v -4 z m 12,0 v 4 h 3.6016 C 2213.75,66 2214,66.148438 2214,66.632812 V 70 h 4 V 66.632812 C 2218,64.203125 2216.1094,62 2213.6016,62 Z m -24,12 v 8 h 4 v -8 z m 28,0 v 8 h 4 v -8 z m -28,12 v 3.359375 C 2186,91.796875 2187.8906,94 2190.3984,94 H 2194 v -4 h -3.6016 C 2190.25,90 2190,89.851562 2190,89.359375 V 86 Z m 28,0 v 3.359375 C 2214,89.851562 2213.75,90 2213.6016,90 H 2210 v 4 h 3.6016 C 2216.1094,94 2218,91.796875 2218,89.359375 V 86 Z m -16,4 v 4 h 8 v -4 z m 0,0"
         fill="#438de6"
         id="path559" /></g><g
       id="g1426"
       transform="translate(-2148,128)"><rect
         style="display:none;opacity:0.2;fill:#9141ac;fill-opacity:1;stroke-width:16;stroke-linecap:square;stroke-linejoin:round;stroke-opacity:0.129412;paint-order:markers stroke fill"
         id="rect1291"
         width="128"
         height="128"
         x="2276"
         y="0" /><path
         d="M 2297.9766,12 C 2292.4492,12 2288,16.460938 2288,22 v 86.03125 c 0,5.54297 4.4492,10 9.9766,10 h 84.0429 c 5.5313,0 9.9805,-4.45703 9.9805,-10 V 35.945312 c 0,-6.628906 -5.3594,-12 -11.9727,-12 H 2334 c -2.4531,0 -4.6953,-1.386718 -5.7969,-3.582031 l -1.5039,-2.992187 C 2325.043,14.078125 2321.6797,12 2318,12 Z m 0,0"
         fill="#438de6"
         id="path588" /><path
         d="m 2341.9766,36 c -2.7461,0 -5.2266,1.101562 -7.0274,2.890625 C 2332.6758,41.144531 2329.5664,44 2326.3164,44 h -28.3398 C 2292.4492,44 2288,48.460938 2288,54 v 54.03125 c 0,5.54297 4.4492,10 9.9766,10 h 84.0429 c 5.5313,0 9.9805,-4.45703 9.9805,-10 V 46 c 0,-5.539062 -4.4492,-10 -9.9805,-10 z m 0,0"
         fill="url(#a)"
         id="path590" /><path
         d="m 2341.9766,32 c -2.7461,0 -5.2266,1.101562 -7.0274,2.890625 C 2332.6758,37.144531 2329.5664,40 2326.3164,40 h -28.3398 C 2292.4492,40 2288,44.460938 2288,50 v 55.97656 c 0,5.53907 4.4492,10 9.9766,10 h 84.0429 c 5.5313,0 9.9805,-4.46093 9.9805,-10 V 42 c 0,-5.539062 -4.4492,-10 -9.9805,-10 z m 0,0"
         fill="#a4caee"
         id="path592" /><g
         fill="#438de6"
         id="g598"
         transform="translate(2276)"><path
           d="m 68,70 v 2 c 0,0.515625 0.257812,1.054688 0.625,1.4375 l 4.5,4.5625 -4.5,4.5625 C 68.257812,82.945312 68,83.484375 68,84 v 2 h 2 c 0.617188,0 1.101562,-0.179688 1.5,-0.5625 L 78.8125,78 71.5,70.5625 C 71.101562,70.179688 70.617188,70 70,70 Z m 0,0"
           id="path594" /><path
           d="m 60,70 v 2 c 0,0.515625 -0.257812,1.054688 -0.625,1.4375 l -4.5,4.5625 4.5,4.5625 C 59.742188,82.945312 60,83.484375 60,84 v 2 h -2 c -0.617188,0 -1.101562,-0.179688 -1.5,-0.5625 L 49.1875,78 56.5,70.5625 C 56.898438,70.179688 57.382812,70 58,70 Z m 0,0"
           id="path596" /></g></g><g
       id="g1416"
       transform="translate(-2158,128)"><rect
         style="display:none;opacity:0.2;fill:#9141ac;fill-opacity:1;stroke-width:16;stroke-linecap:square;stroke-linejoin:round;stroke-opacity:0.129412;paint-order:markers stroke fill"
         id="rect1293"
         width="128"
         height="128"
         x="2414"
         y="0" /><path
         d="M 2435.9766,12 C 2430.4492,12 2426,16.460938 2426,22 v 86.03125 c 0,5.54297 4.4492,10 9.9766,10 h 84.0429 c 5.5313,0 9.9805,-4.45703 9.9805,-10 V 35.945312 c 0,-6.628906 -5.3594,-12 -11.9727,-12 H 2472 c -2.4531,0 -4.6953,-1.386718 -5.7969,-3.582031 l -1.5039,-2.992187 C 2463.043,14.078125 2459.6797,12 2456,12 Z m 0,0"
         fill="#438de6"
         id="path629" /><path
         d="m 2479.9766,36 c -2.7461,0 -5.2266,1.101562 -7.0274,2.890625 C 2470.6758,41.144531 2467.5664,44 2464.3164,44 h -28.3398 C 2430.4492,44 2426,48.460938 2426,54 v 54.03125 c 0,5.54297 4.4492,10 9.9766,10 h 84.0429 c 5.5313,0 9.9805,-4.45703 9.9805,-10 V 46 c 0,-5.539062 -4.4492,-10 -9.9805,-10 z m 0,0"
         fill="url(#a)"
         id="path631" /><path
         d="m 2479.9766,32 c -2.7461,0 -5.2266,1.101562 -7.0274,2.890625 C 2470.6758,37.144531 2467.5664,40 2464.3164,40 h -28.3398 C 2430.4492,40 2426,44.460938 2426,50 v 55.97656 c 0,5.53907 4.4492,10 9.9766,10 h 84.0429 c 5.5313,0 9.9805,-4.46093 9.9805,-10 V 42 c 0,-5.539062 -4.4492,-10 -9.9805,-10 z m 0,0"
         fill="#a4caee"
         id="path633" /><path
         d="M 2477.9844,64 C 2470.25,64.0078 2463.9922,70.28125 2464,78.015625 v 11.976563 c 0,1.109374 0.8984,2.007812 2.0078,2.007812 1.1016,-0.0078 2,-0.90625 1.9922,-2.007812 V 88.007812 C 2468,86.898438 2468.8984,86 2470.0078,86 c 1.1016,0.0078 2,0.90625 1.9922,2.007812 v 1.984376 c 0,1.109374 0.8984,2.007812 2.0078,2.007812 1.1016,-0.0078 2,-0.90625 1.9922,-2.007812 V 88.007812 C 2476,86.898438 2476.8984,86 2478.0078,86 c 1.1016,0.0078 2,0.90625 1.9922,2.007812 v 1.984376 c 0,1.109374 0.8984,2.007812 2.0078,2.007812 1.1016,-0.0078 2,-0.90625 1.9922,-2.007812 V 88.007812 C 2484,86.898438 2484.8984,86 2486.0078,86 c 1.1016,0.0078 2,0.90625 1.9922,2.007812 v 1.984376 c 0,1.109374 0.8984,2.007812 2.0078,2.007812 1.1016,-0.0078 2,-0.90625 1.9922,-2.007812 V 78.015625 C 2492,70.273438 2485.7266,64 2477.9844,64 Z M 2474,72 c 1.1094,0 2,0.890625 2,2 v 2 c 0,1.109375 -0.8906,2 -2,2 -1.1094,0 -2,-0.890625 -2,-2 v -2 c 0,-1.109375 0.8906,-2 2,-2 z m 8,0 c 1.1094,0 2,0.890625 2,2 v 2 c 0,1.109375 -0.8906,2 -2,2 -1.1094,0 -2,-0.890625 -2,-2 v -2 c 0,-1.109375 0.8906,-2 2,-2 z m 0,0"
         fill="#438de6"
         id="path635" /></g><g
       id="g1408"
       transform="translate(-2168,128)"><rect
         style="display:none;opacity:0.2;fill:#9141ac;fill-opacity:1;stroke-width:16;stroke-linecap:square;stroke-linejoin:round;stroke-opacity:0.129412;paint-order:markers stroke fill"
         id="rect1295"
         width="128"
         height="128"
         x="2552"
         y="0" /><path
         d="M 2573.9766,12 C 2568.4492,12 2564,16.460938 2564,22 v 86.03125 c 0,5.54297 4.4492,10 9.9766,10 h 84.0429 c 5.5313,0 9.9805,-4.45703 9.9805,-10 V 35.945312 c 0,-6.628906 -5.3594,-12 -11.9727,-12 H 2610 c -2.4531,0 -4.6953,-1.386718 -5.7969,-3.582031 l -1.5039,-2.992187 C 2601.043,14.078125 2597.6797,12 2594,12 Z m 0,0"
         fill="#438de6"
         id="path664" /><path
         d="m 2617.9766,36 c -2.7461,0 -5.2266,1.101562 -7.0274,2.890625 C 2608.6758,41.144531 2605.5664,44 2602.3164,44 h -28.3398 C 2568.4492,44 2564,48.460938 2564,54 v 54.03125 c 0,5.54297 4.4492,10 9.9766,10 h 84.0429 c 5.5313,0 9.9805,-4.45703 9.9805,-10 V 46 c 0,-5.539062 -4.4492,-10 -9.9805,-10 z m 0,0"
         fill="url(#a)"
         id="path666" /><path
         d="m 2617.9766,32 c -2.7461,0 -5.2266,1.101562 -7.0274,2.890625 C 2608.6758,37.144531 2605.5664,40 2602.3164,40 h -28.3398 C 2568.4492,40 2564,44.460938 2564,50 v 55.97656 c 0,5.53907 4.4492,10 9.9766,10 h 84.0429 c 5.5313,0 9.9805,-4.46093 9.9805,-10 V 42 c 0,-5.539062 -4.4492,-10 -9.9805,-10 z m 0,0"
         fill="#a4caee"
         id="path668" /><g
         fill="#438de6"
         id="g674"
         transform="translate(2552)"><path
           d="m 56,64 c -3.289062,0 -6,2.710938 -6,6 v 16 c 0,3.289062 2.710938,6 6,6 h 16 c 3.289062,0 6,-2.710938 6,-6 V 71.992188 l -4,4 V 86 c 0,1.140625 -0.859375,2 -2,2 H 56 c -1.140625,0 -2,-0.859375 -2,-2 V 70 c 0,-1.140625 0.859375,-2 2,-2 h 13.945312 l 3.757813,-3.75 C 73.15625,64.09375 72.59375,64 72,64 Z m 0,0"
           id="path670" /><path
           d="m 78.789062,62 -8.929687,8.914062 c 1.367187,0.710938 2.46875,1.820313 3.179687,3.179688 L 73.382812,73.75 73.398442,73.76563 80,67.164062 V 62 Z M 66,72 c -3.3125,0 -6,2.679688 -6,6 v 6 h 6 c 3.320312,0.01563 6,-2.6875 6,-6 0,-3.320312 -2.679688,-6 -6,-6 z m 0,0"
           id="path672" /></g></g><g
       id="g1398"
       transform="translate(-2178,128)"><rect
         style="display:none;opacity:0.2;fill:#9141ac;fill-opacity:1;stroke-width:16;stroke-linecap:square;stroke-linejoin:round;stroke-opacity:0.129412;paint-order:markers stroke fill"
         id="rect1297"
         width="128"
         height="128"
         x="2690"
         y="0" /><path
         d="M 2711.9766,12 C 2706.4492,12 2702,16.460938 2702,22 v 86.03125 c 0,5.54297 4.4492,10 9.9766,10 h 84.0429 c 5.5313,0 9.9805,-4.45703 9.9805,-10 V 35.945312 c 0,-6.628906 -5.3594,-12 -11.9727,-12 H 2748 c -2.4531,0 -4.6953,-1.386718 -5.7969,-3.582031 l -1.5039,-2.992187 C 2739.043,14.078125 2735.6797,12 2732,12 Z m 0,0"
         fill="#438de6"
         id="path705" /><path
         d="m 2755.9766,36 c -2.7461,0 -5.2266,1.101562 -7.0274,2.890625 C 2746.6758,41.144531 2743.5664,44 2740.3164,44 h -28.3398 C 2706.4492,44 2702,48.460938 2702,54 v 54.03125 c 0,5.54297 4.4492,10 9.9766,10 h 84.0429 c 5.5313,0 9.9805,-4.45703 9.9805,-10 V 46 c 0,-5.539062 -4.4492,-10 -9.9805,-10 z m 0,0"
         fill="url(#a)"
         id="path707" /><path
         d="m 2755.9766,32 c -2.7461,0 -5.2266,1.101562 -7.0274,2.890625 C 2746.6758,37.144531 2743.5664,40 2740.3164,40 h -28.3398 C 2706.4492,40 2702,44.460938 2702,50 v 55.97656 c 0,5.53907 4.4492,10 9.9766,10 h 84.0429 c 5.5313,0 9.9805,-4.46093 9.9805,-10 V 42 c 0,-5.539062 -4.4492,-10 -9.9805,-10 z m 0,0"
         fill="#a4caee"
         id="path709" /><path
         d="m 2743.9375,62 v 32.023438 h 8 V 85.125 l 0.7266,-0.210938 c 1.6797,-0.46875 3.2734,-2.84375 3.2734,-5.890624 0,-1.742188 -0.5078,-3.296876 -1.2734,-4.367188 -0.7657,-1.078125 -1.7188,-1.632812 -2.7266,-1.632812 -0.5469,0 -1,-0.445313 -1,-1 0,-0.554688 0.4531,-1 1,-1 1.7656,0 3.3047,1.007812 4.3516,2.46875 1.0468,1.460937 1.6484,3.40625 1.6484,5.53125 0,3.335937 -1.6172,6.046874 -4,7.226562 v 7.773438 h 6 v -8 c 2.7656,0 5,-3.132813 5,-7 0,-3.867188 -2.2344,-7 -5,-7 V 62 Z m 0,0"
         fill="#438de6"
         id="path711" /></g><g
       id="g1390"
       transform="translate(-2188,128)"><rect
         style="display:none;opacity:0.2;fill:#9141ac;fill-opacity:1;stroke-width:16;stroke-linecap:square;stroke-linejoin:round;stroke-opacity:0.129412;paint-order:markers stroke fill"
         id="rect1299"
         width="128"
         height="128"
         x="2828"
         y="0" /><path
         d="M 2849.9766,12 C 2844.4492,12 2840,16.460938 2840,22 v 86.03125 c 0,5.54297 4.4492,10 9.9766,10 h 84.0429 c 5.5313,0 9.9805,-4.45703 9.9805,-10 V 35.945312 c 0,-6.628906 -5.3594,-12 -11.9727,-12 H 2886 c -2.4531,0 -4.6953,-1.386718 -5.7969,-3.582031 l -1.5039,-2.992187 C 2877.043,14.078125 2873.6797,12 2870,12 Z m 0,0"
         fill="#438de6"
         id="path740" /><path
         d="m 2893.9766,36 c -2.7461,0 -5.2266,1.101562 -7.0274,2.890625 C 2884.6758,41.144531 2881.5664,44 2878.3164,44 h -28.3398 C 2844.4492,44 2840,48.460938 2840,54 v 54.03125 c 0,5.54297 4.4492,10 9.9766,10 h 84.0429 c 5.5313,0 9.9805,-4.45703 9.9805,-10 V 46 c 0,-5.539062 -4.4492,-10 -9.9805,-10 z m 0,0"
         fill="url(#a)"
         id="path742" /><path
         d="m 2893.9766,32 c -2.7461,0 -5.2266,1.101562 -7.0274,2.890625 C 2884.6758,37.144531 2881.5664,40 2878.3164,40 h -28.3398 C 2844.4492,40 2840,44.460938 2840,50 v 55.97656 c 0,5.53907 4.4492,10 9.9766,10 h 84.0429 c 5.5313,0 9.9805,-4.46093 9.9805,-10 V 42 c 0,-5.539062 -4.4492,-10 -9.9805,-10 z m 0,0"
         fill="#a4caee"
         id="path744" /><path
         d="m 2878,64 v 22 l 5,8 5,-8 V 64 Z m 16,0 v 30 h 12 V 64 Z m 4,2 h 6 v 2 h -4 v 2 h 4 v 2 h -2 v 2 h 2 v 2 h -2 v 2 h 2 v 2 h -2 v 2 h 2 v 2 h -4 v 2 h 4 v 2 h -2 v 2 h 2 v 2 h -6 z m -18,20 h 6 l -2,3 h -2 z m 0,0"
         fill="#438de6"
         id="path746" /></g><g
       id="g1382"
       transform="translate(-2198,128)"><rect
         style="display:none;opacity:0.2;fill:#9141ac;fill-opacity:1;stroke-width:16;stroke-linecap:square;stroke-linejoin:round;stroke-opacity:0.129412;paint-order:markers stroke fill"
         id="rect1301"
         width="128"
         height="128"
         x="2966"
         y="0" /><path
         d="M 2987.9766,12 C 2982.4492,12 2978,16.460938 2978,22 v 86.03125 c 0,5.54297 4.4492,10 9.9766,10 h 84.0429 c 5.5313,0 9.9805,-4.45703 9.9805,-10 V 35.945312 c 0,-6.628906 -5.3594,-12 -11.9727,-12 H 3024 c -2.4531,0 -4.6953,-1.386718 -5.7969,-3.582031 l -1.5039,-2.992187 C 3015.043,14.078125 3011.6797,12 3008,12 Z m 0,0"
         fill="#438de6"
         id="path775" /><path
         d="m 3031.9766,36 c -2.7461,0 -5.2266,1.101562 -7.0274,2.890625 C 3022.6758,41.144531 3019.5664,44 3016.3164,44 h -28.3398 C 2982.4492,44 2978,48.460938 2978,54 v 54.03125 c 0,5.54297 4.4492,10 9.9766,10 h 84.0429 c 5.5313,0 9.9805,-4.45703 9.9805,-10 V 46 c 0,-5.539062 -4.4492,-10 -9.9805,-10 z m 0,0"
         fill="url(#a)"
         id="path777" /><path
         d="m 3031.9766,32 c -2.7461,0 -5.2266,1.101562 -7.0274,2.890625 C 3022.6758,37.144531 3019.5664,40 3016.3164,40 h -28.3398 C 2982.4492,40 2978,44.460938 2978,50 v 55.97656 c 0,5.53907 4.4492,10 9.9766,10 h 84.0429 c 5.5313,0 9.9805,-4.46093 9.9805,-10 V 42 c 0,-5.539062 -4.4492,-10 -9.9805,-10 z m 0,0"
         fill="#a4caee"
         id="path779" /><path
         d="m 3030,62 c -0.5156,0 -1.0234,0.195312 -1.4141,0.585938 l -3.1718,3.171874 10.4765,10.46875 C 3036.2422,76.078125 3036.6172,76 3037,76 c 1.6563,0 3,1.34375 3,3 0,1.65625 -1.3437,3 -3,3 -1.6562,0 -3,-1.34375 -3,-3 0,-0.367188 0.07,-0.726562 0.2031,-1.0625 l -4.1015,-4.101562 v 8.375 C 3031.25,82.664062 3032,83.765625 3032,85 c 0,1.65625 -1.3437,3 -3,3 -1.6562,0 -3,-1.34375 -3,-3 0,-1.3125 0.8516,-2.46875 2.1016,-2.859375 V 71.835938 l -4.3828,-4.382813 -9.1329,9.132813 c -0.7812,0.78125 -0.7812,2.046874 0,2.828124 l 14,14 c 0.7813,0.78125 2.0469,0.78125 2.8282,0 l 14,-14 c 0.7734,-0.78125 0.7734,-2.046874 0,-2.828124 l -14,-14 C 3031.0234,62.195312 3030.5156,62 3030,62 Z m 0,0"
         fill="#438de6"
         id="path781" /></g><g
       id="g1374"
       transform="translate(-2208,128)"><rect
         style="display:none;opacity:0.2;fill:#9141ac;fill-opacity:1;stroke-width:16;stroke-linecap:square;stroke-linejoin:round;stroke-opacity:0.129412;paint-order:markers stroke fill"
         id="rect1303"
         width="128"
         height="128"
         x="3104"
         y="0" /><path
         d="M 3125.9766,12 C 3120.4492,12 3116,16.460938 3116,22 v 86.03125 c 0,5.54297 4.4492,10 9.9766,10 h 84.0429 c 5.5313,0 9.9805,-4.45703 9.9805,-10 V 35.945312 c 0,-6.628906 -5.3594,-12 -11.9727,-12 H 3162 c -2.4531,0 -4.6953,-1.386718 -5.7969,-3.582031 l -1.5039,-2.992187 C 3153.043,14.078125 3149.6797,12 3146,12 Z m 0,0"
         fill="#438de6"
         id="path810" /><path
         d="m 3169.9766,36 c -2.7461,0 -5.2266,1.101562 -7.0274,2.890625 C 3160.6758,41.144531 3157.5664,44 3154.3164,44 h -28.3398 C 3120.4492,44 3116,48.460938 3116,54 v 54.03125 c 0,5.54297 4.4492,10 9.9766,10 h 84.0429 c 5.5313,0 9.9805,-4.45703 9.9805,-10 V 46 c 0,-5.539062 -4.4492,-10 -9.9805,-10 z m 0,0"
         fill="url(#a)"
         id="path812" /><path
         d="m 3169.9766,32 c -2.7461,0 -5.2266,1.101562 -7.0274,2.890625 C 3160.6758,37.144531 3157.5664,40 3154.3164,40 h -28.3398 C 3120.4492,40 3116,44.460938 3116,50 v 55.97656 c 0,5.53907 4.4492,10 9.9766,10 h 84.0429 c 5.5313,0 9.9805,-4.46093 9.9805,-10 V 42 c 0,-5.539062 -4.4492,-10 -9.9805,-10 z m 0,0"
         fill="#a4caee"
         id="path814" /><g
         fill="#438de6"
         id="g822"
         transform="translate(3104)"><path
           d="M 55.898438,64 C 53.734375,64.054688 52,65.828125 52,68 c 0,1.429688 0.765625,2.75 2,3.460938 V 92 h 4 V 71.460938 C 59.234375,70.75 60,69.429688 60,68 c 0,-2.210938 -1.789062,-4 -4,-4 -0.03125,0 -0.0625,0 -0.09375,0 z M 56,66 c 1.101562,0 2,0.898438 2,2 0,1.101562 -0.898438,2 -2,2 -1.101562,0 -2,-0.898438 -2,-2 0,-1.101562 0.898438,-2 2,-2 z m 0,0"
           id="path816" /><path
           d="m 70,68 v 8 c 0,1.6875 -0.375,2.585938 -0.882812,3.101562 C 68.609375,79.609375 67.734375,80 66,80 h -0.0078 l -4.039063,0.03125 C 59.8125,80.046875 57.898438,81.054688 56.460938,82.484375 55.023438,83.90625 54,85.835938 54,88 h 4 c 0,-0.835938 0.476562,-1.882812 1.28125,-2.6875 0.804688,-0.796875 1.875,-1.28125 2.703125,-1.289062 L 66,84 c 2.382812,0 4.507812,-0.609375 5.96875,-2.101562 C 73.429688,80.414062 74,78.3125 74,76 v -8 z m 0,0"
           id="path818" /><path
           d="M 78,72 H 66 l 6,-8 z m 0,0"
           id="path820" /></g></g><g
       id="g1363"
       transform="translate(-3242,256)"><rect
         style="display:none;opacity:0.2;fill:#9141ac;fill-opacity:1;stroke-width:16;stroke-linecap:square;stroke-linejoin:round;stroke-opacity:0.129412;paint-order:markers stroke fill"
         id="rect1305"
         width="128"
         height="128"
         x="3242"
         y="0" /><path
         d="M 3263.9766,12 C 3258.4492,12 3254,16.460938 3254,22 v 86.03125 c 0,5.54297 4.4492,10 9.9766,10 h 84.0429 c 5.5313,0 9.9805,-4.45703 9.9805,-10 V 35.945312 c 0,-6.628906 -5.3594,-12 -11.9727,-12 H 3300 c -2.4531,0 -4.6953,-1.386718 -5.7969,-3.582031 l -1.5039,-2.992187 C 3291.043,14.078125 3287.6797,12 3284,12 Z m 0,0"
         fill="#438de6"
         id="path854" /><path
         d="m 3307.9766,36 c -2.7461,0 -5.2266,1.101562 -7.0274,2.890625 C 3298.6758,41.144531 3295.5664,44 3292.3164,44 h -28.3398 C 3258.4492,44 3254,48.460938 3254,54 v 54.03125 c 0,5.54297 4.4492,10 9.9766,10 h 84.0429 c 5.5313,0 9.9805,-4.45703 9.9805,-10 V 46 c 0,-5.539062 -4.4492,-10 -9.9805,-10 z m 0,0"
         fill="url(#a)"
         id="path856" /><path
         d="m 3307.9766,32 c -2.7461,0 -5.2266,1.101562 -7.0274,2.890625 C 3298.6758,37.144531 3295.5664,40 3292.3164,40 h -28.3398 C 3258.4492,40 3254,44.460938 3254,50 v 55.97656 c 0,5.53907 4.4492,10 9.9766,10 h 84.0429 c 5.5313,0 9.9805,-4.46093 9.9805,-10 V 42 c 0,-5.539062 -4.4492,-10 -9.9805,-10 z m 0,0"
         fill="#a4caee"
         id="path858" /><path
         d="m 3305.7266,64 c -0.5391,0.0078 -1.0703,0.05469 -1.6016,0.125 -4.2187,0.570312 -8.0469,3.054688 -10.25,6.875 -0.5547,0.953125 -0.2266,2.179688 0.7344,2.726562 0.9531,0.554688 2.1797,0.226563 2.7265,-0.726562 2.1094,-3.648438 6.2579,-5.578125 10.3985,-4.851562 3.3594,0.59375 6.1172,2.828124 7.4297,5.851562 H 3312 c -1.1016,0 -2,0.898438 -2,2 0,1.101562 0.8984,2 2,2 h 8 c 1.1016,0 2,-0.898438 2,-2 v -8 c 0,-1.101562 -0.8984,-2 -2,-2 -1.1016,0 -2,0.898438 -2,2 v 2.796875 c -2.0469,-3.40625 -5.5,-5.867187 -9.5703,-6.585937 -0.9063,-0.15625 -1.8125,-0.226563 -2.7031,-0.210938 z M 3292,78 c -1.1016,0 -2,0.898438 -2,2 v 8 c 0,1.101562 0.8984,2 2,2 1.1016,0 2,-0.898438 2,-2 v -2.789062 c 2.2813,3.789062 6.2656,6.335937 10.7813,6.734374 5.414,0.476563 10.625,-2.234374 13.3437,-6.945312 0.5547,-0.953125 0.2266,-2.179688 -0.7344,-2.726562 -0.4531,-0.273438 -1,-0.34375 -1.5156,-0.203126 -0.5156,0.132813 -0.9531,0.46875 -1.2187,0.929688 -1.9454,3.367188 -5.6485,5.296875 -9.5313,4.960938 C 3301.4609,87.640625 3298.2969,85.34375 3296.8359,82 H 3300 c 1.1016,0 2,-0.898438 2,-2 0,-1.101562 -0.8984,-2 -2,-2 z m 0,0"
         fill="#438de6"
         id="path860" /></g><g
       id="g1355"
       transform="translate(-3252,256)"><rect
         style="display:none;opacity:0.2;fill:#9141ac;fill-opacity:1;stroke-width:16;stroke-linecap:square;stroke-linejoin:round;stroke-opacity:0.129412;paint-order:markers stroke fill"
         id="rect1307"
         width="128"
         height="128"
         x="3380"
         y="0" /><path
         d="M 3401.9766,12 C 3396.4492,12 3392,16.460938 3392,22 v 86.03125 c 0,5.54297 4.4492,10 9.9766,10 h 84.0429 c 5.5313,0 9.9805,-4.45703 9.9805,-10 V 35.945312 c 0,-6.628906 -5.3594,-12 -11.9727,-12 H 3438 c -2.4531,0 -4.6953,-1.386718 -5.7969,-3.582031 l -1.5039,-2.992187 C 3429.043,14.078125 3425.6797,12 3422,12 Z m 0,0"
         fill="#438de6"
         id="path889" /><path
         d="m 3445.9766,36 c -2.7461,0 -5.2266,1.101562 -7.0274,2.890625 C 3436.6758,41.144531 3433.5664,44 3430.3164,44 h -28.3398 C 3396.4492,44 3392,48.460938 3392,54 v 54.03125 c 0,5.54297 4.4492,10 9.9766,10 h 84.0429 c 5.5313,0 9.9805,-4.45703 9.9805,-10 V 46 c 0,-5.539062 -4.4492,-10 -9.9805,-10 z m 0,0"
         fill="url(#a)"
         id="path891" /><path
         d="m 3445.9766,32 c -2.7461,0 -5.2266,1.101562 -7.0274,2.890625 C 3436.6758,37.144531 3433.5664,40 3430.3164,40 h -28.3398 C 3396.4492,40 3392,44.460938 3392,50 v 55.97656 c 0,5.53907 4.4492,10 9.9766,10 h 84.0429 c 5.5313,0 9.9805,-4.46093 9.9805,-10 V 42 c 0,-5.539062 -4.4492,-10 -9.9805,-10 z m 0,0"
         fill="#a4caee"
         id="path893" /><path
         d="m 3440,64 c -5.5234,0 -10,4.476562 -10,10 0,5.523438 4.4766,10 10,10 1.6641,-0.0078 3.3047,-0.429688 4.7656,-1.234375 L 3446,84 v 4 h 4 v 4 h 8 v -6 l -8.6172,-8.617188 C 3449.7813,76.296875 3449.9922,75.15625 3450,74 c 0,-5.523438 -4.4766,-10 -10,-10 z m -2,6 c 1.1016,0 2,0.898438 2,2 0,1.101562 -0.8984,2 -2,2 -1.1016,0 -2,-0.898438 -2,-2 0,-1.101562 0.8984,-2 2,-2 z m 0,0"
         fill="#438de6"
         id="path895" /></g><g
       id="g1347"
       transform="translate(-3262,256)"><rect
         style="display:none;opacity:0.2;fill:#9141ac;fill-opacity:1;stroke-width:16;stroke-linecap:square;stroke-linejoin:round;stroke-opacity:0.129412;paint-order:markers stroke fill"
         id="rect1309"
         width="128"
         height="128"
         x="3518"
         y="0" /><path
         d="M 3539.9766,12 C 3534.4492,12 3530,16.460938 3530,22 v 86.03125 c 0,5.54297 4.4492,10 9.9766,10 h 84.0429 c 5.5313,0 9.9805,-4.45703 9.9805,-10 V 35.945312 c 0,-6.628906 -5.3594,-12 -11.9727,-12 H 3576 c -2.4531,0 -4.6953,-1.386718 -5.7969,-3.582031 l -1.5039,-2.992187 C 3567.043,14.078125 3563.6797,12 3560,12 Z m 0,0"
         fill="#438de6"
         id="path924" /><path
         d="m 3583.9766,36 c -2.7461,0 -5.2266,1.101562 -7.0274,2.890625 C 3574.6758,41.144531 3571.5664,44 3568.3164,44 h -28.3398 C 3534.4492,44 3530,48.460938 3530,54 v 54.03125 c 0,5.54297 4.4492,10 9.9766,10 h 84.0429 c 5.5313,0 9.9805,-4.45703 9.9805,-10 V 46 c 0,-5.539062 -4.4492,-10 -9.9805,-10 z m 0,0"
         fill="url(#a)"
         id="path926" /><path
         d="m 3583.9766,32 c -2.7461,0 -5.2266,1.101562 -7.0274,2.890625 C 3574.6758,37.144531 3571.5664,40 3568.3164,40 h -28.3398 C 3534.4492,40 3530,44.460938 3530,50 v 55.97656 c 0,5.53907 4.4492,10 9.9766,10 h 84.0429 c 5.5313,0 9.9805,-4.46093 9.9805,-10 V 42 c 0,-5.539062 -4.4492,-10 -9.9805,-10 z m 0,0"
         fill="#a4caee"
         id="path928" /><path
         d="m 3582,62 c -4.1953,0 -8.2187,1.648438 -11.2109,4.585938 L 3576.2266,76 3584.2109,62.171875 C 3583.4766,62.0625 3582.7422,62.007812 3582,62 Z m 4.2734,0.601562 L 3580.8438,72 h 15.9765 c -1.8672,-4.601562 -5.7578,-8.078125 -10.5469,-9.398438 z m -16.875,5.570313 C 3567.2031,70.976562 3566.0078,74.4375 3566,78 c 0,1.351562 0.1797,2.695312 0.5234,4 h 10.8594 z M 3586.6172,74 l 7.9844,13.828125 C 3596.7969,85.023438 3597.9922,81.5625 3598,78 c 0,-1.351562 -0.1797,-2.695312 -0.5234,-4 z m 1.1562,6 -7.9843,13.828125 c 0.7343,0.109375 1.4687,0.164063 2.2109,0.171875 4.1953,0 8.2188,-1.648438 11.2109,-4.59375 z m -20.5937,4 c 1.8672,4.601562 5.7578,8.078125 10.5469,9.398438 L 3583.1563,84 Z m 0,0"
         fill="#438de6"
         id="path930" /></g><g
       id="g1339"
       transform="translate(-3272,256)"><rect
         style="display:none;opacity:0.2;fill:#9141ac;fill-opacity:1;stroke-width:16;stroke-linecap:square;stroke-linejoin:round;stroke-opacity:0.129412;paint-order:markers stroke fill"
         id="rect1311"
         width="128"
         height="128"
         x="3656"
         y="0" /><path
         d="M 3677.9766,12 C 3672.4492,12 3668,16.460938 3668,22 v 86.03125 c 0,5.54297 4.4492,10 9.9766,10 h 84.0429 c 5.5313,0 9.9805,-4.45703 9.9805,-10 V 35.945312 c 0,-6.628906 -5.3594,-12 -11.9727,-12 H 3714 c -2.4531,0 -4.6953,-1.386718 -5.7969,-3.582031 l -1.5039,-2.992187 C 3705.043,14.078125 3701.6797,12 3698,12 Z m 0,0"
         fill="#438de6"
         id="path959" /><path
         d="m 3721.9766,36 c -2.7461,0 -5.2266,1.101562 -7.0274,2.890625 C 3712.6758,41.144531 3709.5664,44 3706.3164,44 h -28.3398 C 3672.4492,44 3668,48.460938 3668,54 v 54.03125 c 0,5.54297 4.4492,10 9.9766,10 h 84.0429 c 5.5313,0 9.9805,-4.45703 9.9805,-10 V 46 c 0,-5.539062 -4.4492,-10 -9.9805,-10 z m 0,0"
         fill="url(#a)"
         id="path961" /><path
         d="m 3721.9766,32 c -2.7461,0 -5.2266,1.101562 -7.0274,2.890625 C 3712.6758,37.144531 3709.5664,40 3706.3164,40 h -28.3398 C 3672.4492,40 3668,44.460938 3668,50 v 55.97656 c 0,5.53907 4.4492,10 9.9766,10 h 84.0429 c 5.5313,0 9.9805,-4.46093 9.9805,-10 V 42 c 0,-5.539062 -4.4492,-10 -9.9805,-10 z m 0,0"
         fill="#a4caee"
         id="path963" /><path
         d="m 3709.8672,62 c -3.25,0 -5.8672,2.664062 -5.8672,5.976562 V 88.03125 c 0,3.304688 2.6172,5.96875 5.8672,5.96875 h 0.2656 c 3.25,0 5.8672,-2.664062 5.8672,-5.96875 V 67.976562 C 3716,64.664062 3713.3828,62 3710.1328,62 Z m 5.1875,0 c 1.7578,1.429688 2.9375,3.585938 2.9375,6 v 2 h 4.25 c -0.1484,-2.1875 2.5,-4 4,-4 1.3594,0 2,0.02344 2,2 v 2 h 2.4375 c 2.4609,-1.203125 3.5625,-3.9375 3.5625,-5.375 0,-1.46875 -4.7734,-2.625 -7.375,-2.625 z M 3718,72 v 8.625 c 5.5313,5.320312 12.25,4.8125 12.25,4.8125 0,0 0.7031,-3.039062 -3.8125,-8.0625 l -4.75,-5.375 h -3.5625 c -0.039,0.0078 -0.086,-0.0078 -0.125,0 z m 5.9531,5.0625 3.3672,3.476562 c -3.6015,0.328126 -4.3047,-1.71875 -3.3672,-3.476562 z m 0,0"
         fill="#438de6"
         id="path965" /></g><g
       id="g1331"
       transform="translate(-3282,256)"><rect
         style="display:none;opacity:0.2;fill:#9141ac;fill-opacity:1;stroke-width:16;stroke-linecap:square;stroke-linejoin:round;stroke-opacity:0.129412;paint-order:markers stroke fill"
         id="rect1313"
         width="128"
         height="128"
         x="3794"
         y="0" /><path
         d="M 3815.9766,12 C 3810.4492,12 3806,16.460938 3806,22 v 86.03125 c 0,5.54297 4.4492,10 9.9766,10 h 84.0429 c 5.5313,0 9.9805,-4.45703 9.9805,-10 V 35.945312 c 0,-6.628906 -5.3594,-12 -11.9727,-12 H 3852 c -2.4531,0 -4.6953,-1.386718 -5.7969,-3.582031 l -1.5039,-2.992187 C 3843.043,14.078125 3839.6797,12 3836,12 Z m 0,0"
         fill="#438de6"
         id="path994" /><path
         d="m 3859.9766,36 c -2.7461,0 -5.2266,1.101562 -7.0274,2.890625 C 3850.6758,41.144531 3847.5664,44 3844.3164,44 h -28.3398 C 3810.4492,44 3806,48.460938 3806,54 v 54.03125 c 0,5.54297 4.4492,10 9.9766,10 h 84.0429 c 5.5313,0 9.9805,-4.45703 9.9805,-10 V 46 c 0,-5.539062 -4.4492,-10 -9.9805,-10 z m 0,0"
         fill="url(#a)"
         id="path996" /><path
         d="m 3859.9766,32 c -2.7461,0 -5.2266,1.101562 -7.0274,2.890625 C 3850.6758,37.144531 3847.5664,40 3844.3164,40 h -28.3398 C 3810.4492,40 3806,44.460938 3806,50 v 55.97656 c 0,5.53907 4.4492,10 9.9766,10 h 84.0429 c 5.5313,0 9.9805,-4.46093 9.9805,-10 V 42 c 0,-5.539062 -4.4492,-10 -9.9805,-10 z m 0,0"
         fill="#a4caee"
         id="path998" /><path
         d="m 3858,62 c -1.5391,0 -3.0781,0.585938 -4.2422,1.75 L 3843.75,73.757812 c -2.3281,2.328126 -2.3281,6.15625 0,8.484376 L 3853.7578,92.25 c 2.3281,2.328125 6.1563,2.328125 8.4844,0 l 10.0156,-10.007812 c 2.3281,-2.328126 2.3281,-6.15625 0,-8.484376 L 3862.2422,63.75 C 3861.0781,62.585938 3859.5391,62 3858,62 Z m 0.2031,3.976562 c 0.4219,0.04688 0.8282,0.234376 1.1719,0.5625 l -0.6797,0.226563 c -0.1484,-0.273437 -0.3125,-0.539063 -0.4922,-0.789063 z m -3.1406,2.117188 c 0.6016,0.84375 0.9297,1.859375 0.9375,2.90625 0,2.757812 -2.2422,5 -5,5 -1.0469,-0.0078 -2.0625,-0.34375 -2.8984,-0.945312 z m 6.8828,1.007812 7.4844,7.484376 c 0.8047,0.804687 0.8047,2.023437 0,2.828124 l -0.5078,0.5 c -0.078,-0.09375 -0.1485,-0.1875 -0.2344,-0.28125 l 1.2422,-1.710937 -1.6172,-1.171875 -1.2422,1.703125 c -0.3359,-0.15625 -0.6953,-0.273437 -1.0703,-0.351563 V 76 h -2 v 2.101562 c -0.3672,0.07813 -0.7266,0.195313 -1.0625,0.351563 l -1.2422,-1.703125 -1.6094,1.171875 1.2344,1.710937 c -0.25,0.273438 -0.4765,0.578126 -0.664,0.90625 l -2,-0.648437 -0.6172,1.898437 2,0.648438 C 3860.0156,82.625 3860,82.8125 3860,83 c 0,0.1875 0.016,0.375 0.039,0.5625 l -2,0.648438 0.6172,1.898437 2,-0.648437 c 0.1875,0.328124 0.414,0.632812 0.664,0.90625 l -1.2344,1.710937 0.3907,0.28125 -1.0625,1.0625 c -0.8047,0.8125 -2.0235,0.8125 -2.8282,0 l -9.8046,-9.804687 0.055,-0.07813 0.4141,-0.578124 c 0.6641,0.304687 1.3672,0.539062 2.0938,0.679687 V 82 h 3.3046 v -2.359375 c 0.7266,-0.140625 1.4297,-0.375 2.0938,-0.679687 l 0.4141,0.578124 0.9687,1.335938 2.6641,-1.945312 -0.961,-1.335938 -0.4218,-0.578125 c 0.5,-0.539063 0.9375,-1.132813 1.289,-1.78125 l 0.6797,0.226563 1.5703,0.507812 1.0235,-3.132812 -1.5704,-0.515626 -0.6796,-0.21875 c 0.047,-0.359374 0.078,-0.726562 0.078,-1.101562 0,-0.375 -0.031,-0.742188 -0.078,-1.101562 l 0.6796,-0.21875 1.5704,-0.515626 z M 3865,80 c 1.0547,0 1.9688,0.53125 2.5,1.335938 L 3863.3438,85.5 C 3862.5313,84.960938 3862,84.054688 3862,83 c 0,-1.671875 1.3359,-3 3,-3 z m 0,0"
         fill="#438de6"
         id="path1000" /></g><g
       id="g1323"
       transform="translate(-3292,256)"><rect
         style="display:none;opacity:0.2;fill:#9141ac;fill-opacity:1;stroke-width:16;stroke-linecap:square;stroke-linejoin:round;stroke-opacity:0.129412;paint-order:markers stroke fill"
         id="rect1315"
         width="128"
         height="128"
         x="3932"
         y="0" /><path
         d="M 3953.9766,12 C 3948.4492,12 3944,16.460938 3944,22 v 86.03125 c 0,5.54297 4.4492,10 9.9766,10 h 84.0429 c 5.5313,0 9.9805,-4.45703 9.9805,-10 V 35.945312 c 0,-6.628906 -5.3594,-12 -11.9727,-12 H 3990 c -2.4531,0 -4.6953,-1.386718 -5.7969,-3.582031 l -1.5039,-2.992187 C 3981.043,14.078125 3977.6797,12 3974,12 Z m 0,0"
         fill="#438de6"
         id="path1029" /><path
         d="m 3997.9766,36 c -2.7461,0 -5.2266,1.101562 -7.0274,2.890625 C 3988.6758,41.144531 3985.5664,44 3982.3164,44 h -28.3398 C 3948.4492,44 3944,48.460938 3944,54 v 54.03125 c 0,5.54297 4.4492,10 9.9766,10 h 84.0429 c 5.5313,0 9.9805,-4.45703 9.9805,-10 V 46 c 0,-5.539062 -4.4492,-10 -9.9805,-10 z m 0,0"
         fill="url(#a)"
         id="path1031" /><path
         d="m 3997.9766,32 c -2.7461,0 -5.2266,1.101562 -7.0274,2.890625 C 3988.6758,37.144531 3985.5664,40 3982.3164,40 h -28.3398 C 3948.4492,40 3944,44.460938 3944,50 v 55.97656 c 0,5.53907 4.4492,10 9.9766,10 h 84.0429 c 5.5313,0 9.9805,-4.46093 9.9805,-10 V 42 c 0,-5.539062 -4.4492,-10 -9.9805,-10 z m 0,0"
         fill="#a4caee"
         id="path1033" /><path
         d="m 4001.5703,64.164062 c 1.1172,1.023438 2.4453,2.414063 4.3594,4.335938 0.5625,0.5625 0.7812,1.492188 0.3516,2.492188 -0.1954,0.5 -0.078,1.0625 0.3046,1.4375 0.5235,0.507812 1.3594,0.507812 1.8907,0 0.5234,-0.523438 1.5859,-0.171876 1.8437,0.08594 l 0.961,0.960937 v -0.0078 c 0.789,0.78125 0.789,2.054688 0,2.835938 l -4.7266,4.734374 c -0.7813,0.78125 -2.0547,0.78125 -2.8359,0 l -0.9219,-1.046874 c -0.5235,-0.523438 -0.5235,-1.367188 0,-1.890626 0.5234,-0.523437 0.5234,-1.367187 0,-1.890624 -0.5235,-0.507813 -1.4922,-0.59375 -2.0235,-0.08594 l -2.3437,2.210938 -4.8828,-4.890626 c 0,0 1.6797,-1.65625 2.1719,-2.132812 1.2343,-1.25 0.125,-2.304688 -0.4219,-2.835938 -1.3281,-1.320312 -4.0781,-1.84375 -5.9531,-1.765624 -0.586,0.02344 -1.1172,-0.335938 -1.3204,-0.882813 -0.1953,-0.554687 -0.01,-1.171875 0.4688,-1.523437 5.5078,-2.320313 10.9062,-2.320313 13.0781,-0.140626 z m -4.8984,16.070313 -10.5781,10.554687 c -0.7422,0.75 -1.3438,1.25 -2.0391,1.25 -2.1797,-0.05469 -3.9453,-1.820312 -4,-4 0,-1.0625 0.2578,-1.453124 1.0078,-2.195312 l 10.5938,-10.546875 z m 0,0"
         fill="#438de6"
         id="path1035" /></g></g></svg>
