<?xml version="1.0" encoding="UTF-8"?>
<svg height="128px" viewBox="0 0 128 128" width="128px" xmlns="http://www.w3.org/2000/svg" xmlns:xlink="http://www.w3.org/1999/xlink">
    <linearGradient id="a" gradientTransform="matrix(0.45451 0 0 0.455522 -1210.292114 616.172607)" gradientUnits="userSpaceOnUse" x1="2689.251953" x2="2918.069824" y1="-1106.802979" y2="-1106.802979">
        <stop offset="0" stop-color="#62a0ea"/>
        <stop offset="0.0576991" stop-color="#afd4ff"/>
        <stop offset="0.122204" stop-color="#62a0ea"/>
        <stop offset="0.873306" stop-color="#62a0ea"/>
        <stop offset="0.955997" stop-color="#c0d5ea"/>
        <stop offset="1" stop-color="#62a0ea"/>
    </linearGradient>
    <path d="m 21.976562 12 c -5.527343 0 -9.976562 4.460938 -9.976562 10 v 86.03125 c 0 5.542969 4.449219 10 9.976562 10 h 84.042969 c 5.53125 0 9.980469 -4.457031 9.980469 -10 v -72.085938 c 0 -6.628906 -5.359375 -12 -11.972656 -12 h -46.027344 c -2.453125 0 -4.695312 -1.386718 -5.796875 -3.582031 l -1.503906 -2.992187 c -1.65625 -3.292969 -5.019531 -5.371094 -8.699219 -5.371094 z m 0 0" fill="#438de6"/>
    <path d="m 65.976562 36 c -2.746093 0 -5.226562 1.101562 -7.027343 2.890625 c -2.273438 2.253906 -5.382813 5.109375 -8.632813 5.109375 h -28.339844 c -5.527343 0 -9.976562 4.460938 -9.976562 10 v 54.03125 c 0 5.542969 4.449219 10 9.976562 10 h 84.042969 c 5.53125 0 9.980469 -4.457031 9.980469 -10 v -62.03125 c 0 -5.539062 -4.449219 -10 -9.980469 -10 z m 0 0" fill="url(#a)"/>
    <path d="m 65.976562 32 c -2.746093 0 -5.226562 1.101562 -7.027343 2.890625 c -2.273438 2.253906 -5.382813 5.109375 -8.632813 5.109375 h -28.339844 c -5.527343 0 -9.976562 4.460938 -9.976562 10 v 55.976562 c 0 5.539063 4.449219 10 9.976562 10 h 84.042969 c 5.53125 0 9.980469 -4.460937 9.980469 -10 v -63.976562 c 0 -5.539062 -4.449219 -10 -9.980469 -10 z m 0 0" fill="#a4caee"/>
    <path d="m 64 62 c -4.195312 0 -8.21875 1.648438 -11.210938 4.585938 l 5.4375 9.414062 l 7.984376 -13.828125 c -0.734376 -0.109375 -1.46875 -0.164063 -2.210938 -0.171875 z m 4.273438 0.601562 l -5.429688 9.398438 h 15.976562 c -1.867187 -4.601562 -5.757812 -8.078125 -10.546874 -9.398438 z m -16.875 5.570313 c -2.195313 2.804687 -3.390626 6.265625 -3.398438 9.828125 c 0 1.351562 0.179688 2.695312 0.523438 4 h 10.859374 z m 17.21875 5.828125 l 7.984374 13.828125 c 2.195313 -2.804687 3.390626 -6.265625 3.398438 -9.828125 c 0 -1.351562 -0.179688 -2.695312 -0.523438 -4 z m 1.15625 6 l -7.984376 13.828125 c 0.734376 0.109375 1.46875 0.164063 2.210938 0.171875 c 4.195312 0 8.21875 -1.648438 11.210938 -4.59375 z m -20.59375 4 c 1.867187 4.601562 5.757812 8.078125 10.546874 9.398438 l 5.429688 -9.398438 z m 0 0" fill="#438de6"/>
</svg>
