<?xml version="1.0" encoding="UTF-8"?>
<svg height="128px" viewBox="0 0 128 128" width="128px" xmlns="http://www.w3.org/2000/svg" xmlns:xlink="http://www.w3.org/1999/xlink">
    <linearGradient id="a" gradientTransform="matrix(0.45451 0 0 0.455522 -1210.292114 616.172607)" gradientUnits="userSpaceOnUse" x1="2689.251953" x2="2918.069824" y1="-1106.802979" y2="-1106.802979">
        <stop offset="0" stop-color="#62a0ea"/>
        <stop offset="0.0576991" stop-color="#afd4ff"/>
        <stop offset="0.122204" stop-color="#62a0ea"/>
        <stop offset="0.873306" stop-color="#62a0ea"/>
        <stop offset="0.955997" stop-color="#c0d5ea"/>
        <stop offset="1" stop-color="#62a0ea"/>
    </linearGradient>
    <path d="m 21.976562 12 c -5.527343 0 -9.976562 4.460938 -9.976562 10 v 86.03125 c 0 5.542969 4.449219 10 9.976562 10 h 84.042969 c 5.53125 0 9.980469 -4.457031 9.980469 -10 v -72.085938 c 0 -6.628906 -5.359375 -12 -11.972656 -12 h -46.027344 c -2.453125 0 -4.695312 -1.386718 -5.796875 -3.582031 l -1.503906 -2.992187 c -1.65625 -3.292969 -5.019531 -5.371094 -8.699219 -5.371094 z m 0 0" fill="#438de6"/>
    <path d="m 65.976562 36 c -2.746093 0 -5.226562 1.101562 -7.027343 2.890625 c -2.273438 2.253906 -5.382813 5.109375 -8.632813 5.109375 h -28.339844 c -5.527343 0 -9.976562 4.460938 -9.976562 10 v 54.03125 c 0 5.542969 4.449219 10 9.976562 10 h 84.042969 c 5.53125 0 9.980469 -4.457031 9.980469 -10 v -62.03125 c 0 -5.539062 -4.449219 -10 -9.980469 -10 z m 0 0" fill="url(#a)"/>
    <path d="m 65.976562 32 c -2.746093 0 -5.226562 1.101562 -7.027343 2.890625 c -2.273438 2.253906 -5.382813 5.109375 -8.632813 5.109375 h -28.339844 c -5.527343 0 -9.976562 4.460938 -9.976562 10 v 55.976562 c 0 5.539063 4.449219 10 9.976562 10 h 84.042969 c 5.53125 0 9.980469 -4.460937 9.980469 -10 v -63.976562 c 0 -5.539062 -4.449219 -10 -9.980469 -10 z m 0 0" fill="#a4caee"/>
    <path d="m 53.867188 62 c -3.25 0 -5.867188 2.664062 -5.867188 5.976562 v 20.054688 c 0 3.304688 2.617188 5.96875 5.867188 5.96875 h 0.265624 c 3.25 0 5.867188 -2.664062 5.867188 -5.96875 v -20.054688 c 0 -3.3125 -2.617188 -5.976562 -5.867188 -5.976562 z m 5.1875 0 c 1.757812 1.429688 2.9375 3.585938 2.9375 6 v 2 h 4.25 c -0.148438 -2.1875 2.5 -4 4 -4 c 1.359374 0 2 0.023438 2 2 v 2 h 2.4375 c 2.460937 -1.203125 3.5625 -3.9375 3.5625 -5.375 c 0 -1.46875 -4.773438 -2.625 -7.375 -2.625 z m 2.945312 10 v 8.625 c 5.53125 5.320312 12.25 4.8125 12.25 4.8125 s 0.703125 -3.039062 -3.8125 -8.0625 l -4.75 -5.375 h -3.5625 c -0.039062 0.007812 -0.085938 -0.007812 -0.125 0 z m 5.953125 5.0625 l 3.367187 3.476562 c -3.601562 0.328126 -4.304687 -1.71875 -3.367187 -3.476562 z m 0 0" fill="#438de6"/>
</svg>
