<?xml version="1.0" encoding="UTF-8"?>
<svg height="128px" viewBox="0 0 128 128" width="128px" xmlns="http://www.w3.org/2000/svg" xmlns:xlink="http://www.w3.org/1999/xlink">
    <linearGradient id="a" gradientTransform="matrix(0.45451 0 0 0.455522 -1210.292114 616.172607)" gradientUnits="userSpaceOnUse" x1="2689.251953" x2="2918.069824" y1="-1106.802979" y2="-1106.802979">
        <stop offset="0" stop-color="#62a0ea"/>
        <stop offset="0.0576991" stop-color="#afd4ff"/>
        <stop offset="0.122204" stop-color="#62a0ea"/>
        <stop offset="0.873306" stop-color="#62a0ea"/>
        <stop offset="0.955997" stop-color="#c0d5ea"/>
        <stop offset="1" stop-color="#62a0ea"/>
    </linearGradient>
    <path d="m 21.976562 12 c -5.527343 0 -9.976562 4.460938 -9.976562 10 v 86.03125 c 0 5.542969 4.449219 10 9.976562 10 h 84.042969 c 5.53125 0 9.980469 -4.457031 9.980469 -10 v -72.085938 c 0 -6.628906 -5.359375 -12 -11.972656 -12 h -46.027344 c -2.453125 0 -4.695312 -1.386718 -5.796875 -3.582031 l -1.503906 -2.992187 c -1.65625 -3.292969 -5.019531 -5.371094 -8.699219 -5.371094 z m 0 0" fill="#438de6"/>
    <path d="m 65.976562 36 c -2.746093 0 -5.226562 1.101562 -7.027343 2.890625 c -2.273438 2.253906 -5.382813 5.109375 -8.632813 5.109375 h -28.339844 c -5.527343 0 -9.976562 4.460938 -9.976562 10 v 54.03125 c 0 5.542969 4.449219 10 9.976562 10 h 84.042969 c 5.53125 0 9.980469 -4.457031 9.980469 -10 v -62.03125 c 0 -5.539062 -4.449219 -10 -9.980469 -10 z m 0 0" fill="url(#a)"/>
    <path d="m 65.976562 32 c -2.746093 0 -5.226562 1.101562 -7.027343 2.890625 c -2.273438 2.253906 -5.382813 5.109375 -8.632813 5.109375 h -28.339844 c -5.527343 0 -9.976562 4.460938 -9.976562 10 v 55.976562 c 0 5.539063 4.449219 10 9.976562 10 h 84.042969 c 5.53125 0 9.980469 -4.460937 9.980469 -10 v -63.976562 c 0 -5.539062 -4.449219 -10 -9.980469 -10 z m 0 0" fill="#a4caee"/>
    <path d="m 64 62 c -1.539062 0 -3.078125 0.585938 -4.242188 1.75 l -10.007812 10.007812 c -2.328125 2.328126 -2.328125 6.15625 0 8.484376 l 10.007812 10.007812 c 2.328126 2.328125 6.15625 2.328125 8.484376 0 l 10.015624 -10.007812 c 2.328126 -2.328126 2.328126 -6.15625 0 -8.484376 l -10.015624 -10.007812 c -1.164063 -1.164062 -2.703126 -1.75 -4.242188 -1.75 z m 0.203125 3.976562 c 0.421875 0.046876 0.828125 0.234376 1.171875 0.5625 l -0.679688 0.226563 c -0.148437 -0.273437 -0.3125 -0.539063 -0.492187 -0.789063 z m -3.140625 2.117188 c 0.601562 0.84375 0.929688 1.859375 0.9375 2.90625 c 0 2.757812 -2.242188 5 -5 5 c -1.046875 -0.007812 -2.0625 -0.34375 -2.898438 -0.945312 z m 6.882812 1.007812 l 7.484376 7.484376 c 0.804687 0.804687 0.804687 2.023437 0 2.828124 l -0.507813 0.5 c -0.078125 -0.09375 -0.148437 -0.1875 -0.234375 -0.28125 l 1.242188 -1.710937 l -1.617188 -1.171875 l -1.242188 1.703125 c -0.335937 -0.15625 -0.695312 -0.273437 -1.070312 -0.351563 v -2.101562 h -2 v 2.101562 c -0.367188 0.078126 -0.726562 0.195313 -1.0625 0.351563 l -1.242188 -1.703125 l -1.609374 1.171875 l 1.234374 1.710937 c -0.25 0.273438 -0.476562 0.578126 -0.664062 0.90625 l -2 -0.648437 l -0.617188 1.898437 l 2 0.648438 c -0.023437 0.1875 -0.039062 0.375 -0.039062 0.5625 s 0.015625 0.375 0.039062 0.5625 l -2 0.648438 l 0.617188 1.898437 l 2 -0.648437 c 0.1875 0.328124 0.414062 0.632812 0.664062 0.90625 l -1.234374 1.710937 l 0.390624 0.28125 l -1.0625 1.0625 c -0.804687 0.8125 -2.023437 0.8125 -2.828124 0 l -9.804688 -9.804687 l 0.054688 -0.078126 l 0.414062 -0.578124 c 0.664062 0.304687 1.367188 0.539062 2.09375 0.679687 v 2.359375 h 3.304688 v -2.359375 c 0.726562 -0.140625 1.429687 -0.375 2.09375 -0.679687 l 0.414062 0.578124 l 0.96875 1.335938 l 2.664062 -1.945312 l -0.960937 -1.335938 l -0.421875 -0.578125 c 0.5 -0.539063 0.9375 -1.132813 1.289062 -1.78125 l 0.679688 0.226563 l 1.570312 0.507812 l 1.023438 -3.132812 l -1.570312 -0.515626 l -0.679688 -0.21875 c 0.046875 -0.359374 0.078125 -0.726562 0.078125 -1.101562 s -0.03125 -0.742188 -0.078125 -1.101562 l 0.679688 -0.21875 l 1.570312 -0.515626 z m 3.054688 10.898438 c 1.054688 0 1.96875 0.53125 2.5 1.335938 l -4.15625 4.164062 c -0.8125 -0.539062 -1.34375 -1.445312 -1.34375 -2.5 c 0 -1.671875 1.335938 -3 3 -3 z m 0 0" fill="#438de6"/>
</svg>
