<?xml version="1.0" encoding="UTF-8"?>
<svg height="128px" viewBox="0 0 128 128" width="128px" xmlns="http://www.w3.org/2000/svg" xmlns:xlink="http://www.w3.org/1999/xlink">
    <linearGradient id="a" gradientTransform="matrix(0.45451 0 0 0.455522 -1210.292114 616.172607)" gradientUnits="userSpaceOnUse" x1="2689.251953" x2="2918.069824" y1="-1106.802979" y2="-1106.802979">
        <stop offset="0" stop-color="#62a0ea"/>
        <stop offset="0.0576991" stop-color="#afd4ff"/>
        <stop offset="0.122204" stop-color="#62a0ea"/>
        <stop offset="0.873306" stop-color="#62a0ea"/>
        <stop offset="0.955997" stop-color="#c0d5ea"/>
        <stop offset="1" stop-color="#62a0ea"/>
    </linearGradient>
    <path d="m 21.976562 12 c -5.527343 0 -9.976562 4.460938 -9.976562 10 v 86.03125 c 0 5.542969 4.449219 10 9.976562 10 h 84.042969 c 5.53125 0 9.980469 -4.457031 9.980469 -10 v -72.085938 c 0 -6.628906 -5.359375 -12 -11.972656 -12 h -46.027344 c -2.453125 0 -4.695312 -1.386718 -5.796875 -3.582031 l -1.503906 -2.992187 c -1.65625 -3.292969 -5.019531 -5.371094 -8.699219 -5.371094 z m 0 0" fill="#438de6"/>
    <path d="m 65.976562 36 c -2.746093 0 -5.226562 1.101562 -7.027343 2.890625 c -2.273438 2.253906 -5.382813 5.109375 -8.632813 5.109375 h -28.339844 c -5.527343 0 -9.976562 4.460938 -9.976562 10 v 54.03125 c 0 5.542969 4.449219 10 9.976562 10 h 84.042969 c 5.53125 0 9.980469 -4.457031 9.980469 -10 v -62.03125 c 0 -5.539062 -4.449219 -10 -9.980469 -10 z m 0 0" fill="url(#a)"/>
    <path d="m 65.976562 32 c -2.746093 0 -5.226562 1.101562 -7.027343 2.890625 c -2.273438 2.253906 -5.382813 5.109375 -8.632813 5.109375 h -28.339844 c -5.527343 0 -9.976562 4.460938 -9.976562 10 v 55.976562 c 0 5.539063 4.449219 10 9.976562 10 h 84.042969 c 5.53125 0 9.980469 -4.460937 9.980469 -10 v -63.976562 c 0 -5.539062 -4.449219 -10 -9.980469 -10 z m 0 0" fill="#a4caee"/>
    <g fill="#438de6">
        <path d="m 72.382812 66 h 3.242188 c 2.40625 0 4.359375 1.953125 4.359375 4.359375 v 3.28125 c 0 2.40625 -1.953125 4.359375 -4.359375 4.359375 h -3.242188 c -2.40625 0 -4.359374 -1.953125 -4.359374 -4.359375 v -3.28125 c 0 -2.40625 1.953124 -4.359375 4.359374 -4.359375 z m 0 0"/>
        <path d="m 79.976562 73.226562 v 13.976563 c 0 2.640625 -2.140624 4.773437 -4.773437 4.773437 h -17.195313 c -1.109374 0 -2.007812 -0.898437 -2.007812 -2.007812 v -0.882812 c 0 -3.914063 3.171875 -7.085938 7.085938 -7.085938 h 4.695312 c 2.28125 0 4.132812 -1.851562 4.132812 -4.125 v -4.703125 z m 0 0"/>
        <path d="m 67.984375 69.929688 v -8.023438 l 4.25 4.03125 z m 0 0"/>
        <path d="m 79.984375 69.929688 v -8.023438 l -3.921875 4.03125 z m 0 0"/>
        <path d="m 59.757812 88 h -5.796874 c -1.070313 0 -1.960938 -0.890625 -1.960938 -1.960938 v -0.320312 c 0 -2.078125 0.851562 -4.0625 2.351562 -5.5 l 3.609376 -3.453125 c 1.34375 -1.28125 2.101562 -3.0625 2.101562 -4.914063 v -0.507812 c 0 -2.960938 -2.382812 -5.34375 -5.34375 -5.34375 h -2.929688 c -1.101562 0 -2 0.890625 -2 2 c 0 1.101562 0.898438 2 2 2 h 2.929688 c 0.734375 0 1.34375 0.609375 1.34375 1.34375 v 0.507812 c 0 0.765626 -0.3125 1.492188 -0.859375 2.023438 l -3.617187 3.453125 c -2.289063 2.1875 -3.585938 5.21875 -3.585938 8.390625 v 0.320312 c 0 3.304688 2.65625 5.960938 5.960938 5.960938 h 5.796874 c 1.101563 0 2 -0.898438 2 -2 s -0.898437 -2 -2 -2 z m 0 0"/>
    </g>
</svg>
