<?xml version="1.0" encoding="UTF-8"?>
<svg height="128px" viewBox="0 0 128 128" width="128px" xmlns="http://www.w3.org/2000/svg" xmlns:xlink="http://www.w3.org/1999/xlink">
    <linearGradient id="a" gradientTransform="matrix(0.45451 0 0 0.455522 -1210.292114 616.172607)" gradientUnits="userSpaceOnUse" x1="2689.251953" x2="2918.069824" y1="-1106.802979" y2="-1106.802979">
        <stop offset="0" stop-color="#62a0ea"/>
        <stop offset="0.0576991" stop-color="#afd4ff"/>
        <stop offset="0.122204" stop-color="#62a0ea"/>
        <stop offset="0.873306" stop-color="#62a0ea"/>
        <stop offset="0.955997" stop-color="#c0d5ea"/>
        <stop offset="1" stop-color="#62a0ea"/>
    </linearGradient>
    <path d="m 21.976562 12 c -5.527343 0 -9.976562 4.460938 -9.976562 10 v 86.03125 c 0 5.542969 4.449219 10 9.976562 10 h 84.042969 c 5.53125 0 9.980469 -4.457031 9.980469 -10 v -72.085938 c 0 -6.628906 -5.359375 -12 -11.972656 -12 h -46.027344 c -2.453125 0 -4.695312 -1.386718 -5.796875 -3.582031 l -1.503906 -2.992187 c -1.65625 -3.292969 -5.019531 -5.371094 -8.699219 -5.371094 z m 0 0" fill="#438de6"/>
    <path d="m 65.976562 36 c -2.746093 0 -5.226562 1.101562 -7.027343 2.890625 c -2.273438 2.253906 -5.382813 5.109375 -8.632813 5.109375 h -28.339844 c -5.527343 0 -9.976562 4.460938 -9.976562 10 v 54.03125 c 0 5.542969 4.449219 10 9.976562 10 h 84.042969 c 5.53125 0 9.980469 -4.457031 9.980469 -10 v -62.03125 c 0 -5.539062 -4.449219 -10 -9.980469 -10 z m 0 0" fill="url(#a)"/>
    <path d="m 65.976562 32 c -2.746093 0 -5.226562 1.101562 -7.027343 2.890625 c -2.273438 2.253906 -5.382813 5.109375 -8.632813 5.109375 h -28.339844 c -5.527343 0 -9.976562 4.460938 -9.976562 10 v 55.976562 c 0 5.539063 4.449219 10 9.976562 10 h 84.042969 c 5.53125 0 9.980469 -4.460937 9.980469 -10 v -63.976562 c 0 -5.539062 -4.449219 -10 -9.980469 -10 z m 0 0" fill="#a4caee"/>
    <g fill="#438de6">
        <path d="m 58 73.992188 c -4.414062 0 -7.984375 3.570312 -7.984375 7.984374 c 0 4.421876 3.570313 7.984376 7.984375 7.984376 h 12 c 4.414062 0 7.984375 -3.5625 7.984375 -7.984376 c 0 -4.414062 -3.570313 -7.984374 -7.984375 -7.984374 z m 0 2 h 12 c 3.351562 0 5.984375 2.632812 5.984375 5.984374 c 0 3.359376 -2.632813 5.984376 -5.984375 5.984376 h -12 c -3.351562 0 -5.984375 -2.625 -5.984375 -5.984376 c 0 -3.351562 2.632813 -5.984374 5.984375 -5.984374 z m 0 0" fill-rule="evenodd"/>
        <path d="m 56 79.976562 c -0.554688 0 -1 0.453126 -1 1 c 0 1.164063 0.773438 2.164063 1.828125 2.65625 c 1.054687 0.492188 2.289063 0.492188 3.34375 0 c 1.054687 -0.492187 1.828125 -1.492187 1.828125 -2.65625 c 0 -0.546874 -0.445312 -1 -1 -1 s -1 0.453126 -1 1 c 0 0.28125 -0.179688 0.609376 -0.671875 0.835938 c -0.492187 0.234375 -1.164063 0.234375 -1.65625 0 c -0.492187 -0.226562 -0.671875 -0.554688 -0.671875 -0.835938 c 0 -0.546874 -0.445312 -1 -1 -1 z m 0 0" fill-rule="evenodd"/>
        <path d="m 66.984375 79.976562 c -0.554687 0 -1 0.453126 -1 1 c 0 1.164063 0.773437 2.164063 1.828125 2.65625 c 1.054688 0.492188 2.28125 0.492188 3.335938 0 c 1.0625 -0.492187 1.828124 -1.492187 1.828124 -2.65625 c 0 -0.546874 -0.445312 -1 -1 -1 c -0.546874 0 -1 0.453126 -1 1 c 0 0.28125 -0.171874 0.609376 -0.664062 0.835938 c -0.492188 0.234375 -1.164062 0.234375 -1.65625 0 c -0.492188 -0.226562 -0.671875 -0.554688 -0.671875 -0.835938 c 0 -0.546874 -0.445313 -1 -1 -1 z m 0 0" fill-rule="evenodd"/>
        <path d="m 57.84375 62.0625 l -8.625 14.9375 c -0.554688 0.953125 -0.21875 2.179688 0.734375 2.726562 c 0.953125 0.554688 2.179687 0.226563 2.734375 -0.726562 l 5.132812 -8.898438 l 2.78125 4.867188 c 0.546876 0.960938 1.765626 1.296875 2.726563 0.75 s 1.289063 -1.765625 0.75 -2.726562 z m 0 0"/>
        <path d="m 70.046875 62.0625 l -6.226563 10.929688 c -0.546874 0.960937 -0.210937 2.179687 0.742188 2.726562 c 0.960938 0.546875 2.179688 0.210938 2.726562 -0.75 l 2.789063 -4.867188 l 5.132813 8.898438 c 0.554687 0.953125 1.773437 1.28125 2.726562 0.726562 c 0.960938 -0.546874 1.289062 -1.773437 0.734375 -2.726562 z m 0 0"/>
        <path d="m 49.414062 76.835938 c -0.898437 1.5 -1.414062 3.265624 -1.414062 5.140624 c 0 5.507813 4.492188 10 10 10 h 12 c 5.507812 0 10 -4.492187 10 -10 c 0 -1.835937 -0.5 -3.578124 -1.375 -5.070312 l -3.453125 2.03125 c 0.523437 0.890625 0.828125 1.921875 0.828125 3.039062 c 0 3.359376 -2.640625 6 -6 6 h -12 c -3.359375 0 -6 -2.640624 -6 -6 c 0 -1.140624 0.3125 -2.1875 0.851562 -3.085937 z m 0 0" fill-rule="evenodd"/>
    </g>
</svg>
