<?xml version="1.0" encoding="UTF-8"?>
<svg height="128px" viewBox="0 0 128 128" width="128px" xmlns="http://www.w3.org/2000/svg" xmlns:xlink="http://www.w3.org/1999/xlink">
    <linearGradient id="a" gradientTransform="matrix(0.45451 0 0 0.455522 -1210.292114 616.172607)" gradientUnits="userSpaceOnUse" x1="2689.251953" x2="2918.069824" y1="-1106.802979" y2="-1106.802979">
        <stop offset="0" stop-color="#62a0ea"/>
        <stop offset="0.0576991" stop-color="#afd4ff"/>
        <stop offset="0.122204" stop-color="#62a0ea"/>
        <stop offset="0.873306" stop-color="#62a0ea"/>
        <stop offset="0.955997" stop-color="#c0d5ea"/>
        <stop offset="1" stop-color="#62a0ea"/>
    </linearGradient>
    <path d="m 21.976562 12 c -5.527343 0 -9.976562 4.460938 -9.976562 10 v 86.03125 c 0 5.542969 4.449219 10 9.976562 10 h 84.042969 c 5.53125 0 9.980469 -4.457031 9.980469 -10 v -72.085938 c 0 -6.628906 -5.359375 -12 -11.972656 -12 h -46.027344 c -2.453125 0 -4.695312 -1.386718 -5.796875 -3.582031 l -1.503906 -2.992187 c -1.65625 -3.292969 -5.019531 -5.371094 -8.699219 -5.371094 z m 0 0" fill="#438de6"/>
    <path d="m 65.976562 36 c -2.746093 0 -5.226562 1.101562 -7.027343 2.890625 c -2.273438 2.253906 -5.382813 5.109375 -8.632813 5.109375 h -28.339844 c -5.527343 0 -9.976562 4.460938 -9.976562 10 v 54.03125 c 0 5.542969 4.449219 10 9.976562 10 h 84.042969 c 5.53125 0 9.980469 -4.457031 9.980469 -10 v -62.03125 c 0 -5.539062 -4.449219 -10 -9.980469 -10 z m 0 0" fill="url(#a)"/>
    <path d="m 65.976562 32 c -2.746093 0 -5.226562 1.101562 -7.027343 2.890625 c -2.273438 2.253906 -5.382813 5.109375 -8.632813 5.109375 h -28.339844 c -5.527343 0 -9.976562 4.460938 -9.976562 10 v 55.976562 c 0 5.539063 4.449219 10 9.976562 10 h 84.042969 c 5.53125 0 9.980469 -4.460937 9.980469 -10 v -63.976562 c 0 -5.539062 -4.449219 -10 -9.980469 -10 z m 0 0" fill="#a4caee"/>
    <path d="m 55 66 c -3.320312 0 -5.601562 2 -6 6 c 0 0 -1 6 -1 10 c 0 0 0 6 6.0625 6 c 5.9375 0 5.9375 -6 5.9375 -6 c 0 -3 2.101562 -4.007812 4 -4 c 1.882812 0.007812 4 1 4.0625 4 c 0 0 -0.0625 6 5.9375 6 s 6 -6 6 -6 c 0.0625 -4 -1 -10 -1 -10 c -0.328125 -3.304688 -2.679688 -6 -6 -6 z m 1.5 4 h 1 c 0.273438 0 0.5 0.226562 0.5 0.5 v 1.5 h 1.5 c 0.273438 0 0.5 0.226562 0.5 0.5 v 1 c 0 0.273438 -0.226562 0.5 -0.5 0.5 h -1.5 v 1.5 c 0 0.273438 -0.226562 0.5 -0.5 0.5 h -1 c -0.273438 0 -0.5 -0.226562 -0.5 -0.5 v -1.5 h -1.5 c -0.273438 0 -0.5 -0.226562 -0.5 -0.5 v -1 c 0 -0.273438 0.226562 -0.5 0.5 -0.5 h 1.5 v -1.5 c 0 -0.273438 0.226562 -0.5 0.5 -0.5 z m 11.5 0 c 1.101562 0 2 0.898438 2 2 s -0.898438 2 -2 2 s -2 -0.898438 -2 -2 s 0.898438 -2 2 -2 z m 6 4 c 1.101562 0 2 0.898438 2 2 s -0.898438 2 -2 2 s -2 -0.898438 -2 -2 s 0.898438 -2 2 -2 z m 0 0" fill="#438de6"/>
</svg>
