<?xml version="1.0" encoding="UTF-8"?>
<svg height="128px" viewBox="0 0 128 128" width="128px" xmlns="http://www.w3.org/2000/svg" xmlns:xlink="http://www.w3.org/1999/xlink">
    <linearGradient id="a" gradientTransform="matrix(0.45451 0 0 0.455522 -1210.292114 616.172607)" gradientUnits="userSpaceOnUse" x1="2689.251953" x2="2918.069824" y1="-1106.802979" y2="-1106.802979">
        <stop offset="0" stop-color="#62a0ea"/>
        <stop offset="0.0576991" stop-color="#afd4ff"/>
        <stop offset="0.122204" stop-color="#62a0ea"/>
        <stop offset="0.873306" stop-color="#62a0ea"/>
        <stop offset="0.955997" stop-color="#c0d5ea"/>
        <stop offset="1" stop-color="#62a0ea"/>
    </linearGradient>
    <path d="m 21.976562 12 c -5.527343 0 -9.976562 4.460938 -9.976562 10 v 86.03125 c 0 5.542969 4.449219 10 9.976562 10 h 84.042969 c 5.53125 0 9.980469 -4.457031 9.980469 -10 v -72.085938 c 0 -6.628906 -5.359375 -12 -11.972656 -12 h -46.027344 c -2.453125 0 -4.695312 -1.386718 -5.796875 -3.582031 l -1.503906 -2.992187 c -1.65625 -3.292969 -5.019531 -5.371094 -8.699219 -5.371094 z m 0 0" fill="#438de6"/>
    <path d="m 65.976562 36 c -2.746093 0 -5.226562 1.101562 -7.027343 2.890625 c -2.273438 2.253906 -5.382813 5.109375 -8.632813 5.109375 h -28.339844 c -5.527343 0 -9.976562 4.460938 -9.976562 10 v 54.03125 c 0 5.542969 4.449219 10 9.976562 10 h 84.042969 c 5.53125 0 9.980469 -4.457031 9.980469 -10 v -62.03125 c 0 -5.539062 -4.449219 -10 -9.980469 -10 z m 0 0" fill="url(#a)"/>
    <path d="m 65.976562 32 c -2.746093 0 -5.226562 1.101562 -7.027343 2.890625 c -2.273438 2.253906 -5.382813 5.109375 -8.632813 5.109375 h -28.339844 c -5.527343 0 -9.976562 4.460938 -9.976562 10 v 55.976562 c 0 5.539063 4.449219 10 9.976562 10 h 84.042969 c 5.53125 0 9.980469 -4.460937 9.980469 -10 v -63.976562 c 0 -5.539062 -4.449219 -10 -9.980469 -10 z m 0 0" fill="#a4caee"/>
    <g fill="#438de6">
        <path d="m 60.859375 72 c -0.476563 0.03125 -0.859375 0.421875 -0.859375 0.914062 v 0.179688 c 0 0.507812 0.40625 0.90625 0.90625 0.90625 h 0.1875 c 0.5 0 0.90625 -0.398438 0.90625 -0.90625 v -0.179688 c 0 -0.507812 -0.40625 -0.914062 -0.90625 -0.914062 h -0.1875 c -0.015625 0 -0.03125 0 -0.046875 0 z m 6.09375 0 c -0.53125 0.03125 -0.953125 0.46875 -0.953125 1 c 0 0.554688 0.445312 1 1 1 s 1 -0.445312 1 -1 c 0 -0.546875 -0.445312 -1 -1 -1 c -0.015625 0 -0.03125 0 -0.054688 0 z m -4.867187 2.5 v 1 c 0 1.109375 2 3 2 3 s 2 -1.890625 2 -3 v -1 z m 0 0"/>
        <path d="m 64.0625 62.007812 c -3.476562 0 -5.867188 1.039063 -7.875 3 c -1.929688 1.875 -2.617188 4.351563 -3.0625 7.5 c 0 0 -0.476562 2.59375 0.125 3.6875 c -0.984375 1.171876 -5.1875 6.4375 -5.1875 8.8125 c 0.734375 2.28125 4.585938 -2.953124 5.25 0.0625 c 0.570312 2.5625 1.710938 3.5625 4.0625 5 c -1.867188 0.164063 -3.3125 0.953126 -3.3125 1.9375 c 2.328125 1.429688 2.476562 1.625 4.875 1.625 c 2.210938 0 3.125 -0.523437 3.125 -1.625 c 0 -0.070312 0.015625 -0.125 0 -0.1875 c 0.664062 0.101563 1.320312 0.1875 2 0.1875 s 1.335938 -0.085937 2 -0.1875 c -0.015625 0.0625 0 0.117188 0 0.1875 c 0 1.101563 0.914062 1.625 3.125 1.625 c 2.398438 0 2.546875 -0.195312 4.875 -1.625 c 0 -0.984374 -1.445312 -1.773437 -3.3125 -1.9375 c 2.351562 -1.4375 3.492188 -2.4375 4.0625 -5 c 0.664062 -3.015624 4.515625 2.21875 5.25 -0.0625 c 0 -2.375 -4.203125 -7.640624 -5.1875 -8.8125 c 0.601562 -1.09375 0.125 -3.6875 0.125 -3.6875 c -0.445312 -3.148437 -1.132812 -5.625 -3.0625 -7.5 c -2.007812 -1.960937 -4.398438 -3 -7.875 -3 z m -2.0625 3.8125 c 1.070312 0.234376 1.195312 2.1875 2.0625 2.1875 s 0.992188 -1.953124 2.0625 -2.1875 c 6.289062 0.289063 6.585938 8.804688 5.0625 10.5625 c 0 0 2.015625 3.71875 1.125 6.5625 c -1.289062 4.09375 -3.820312 6.0625 -8.25 6.0625 s -6.960938 -1.96875 -8.25 -6.0625 c -0.890625 -2.84375 1.125 -6.5625 1.125 -6.5625 c -1.523438 -1.757812 -1.226562 -10.273437 5.0625 -10.5625 z m 0 0"/>
    </g>
</svg>
