<?xml version="1.0" encoding="UTF-8"?>
<svg height="128px" viewBox="0 0 128 128" width="128px" xmlns="http://www.w3.org/2000/svg" xmlns:xlink="http://www.w3.org/1999/xlink">
    <linearGradient id="a" gradientTransform="matrix(0.45451 0 0 0.455522 -1210.292114 616.172607)" gradientUnits="userSpaceOnUse" x1="2689.251953" x2="2918.069824" y1="-1106.802979" y2="-1106.802979">
        <stop offset="0" stop-color="#62a0ea"/>
        <stop offset="0.0576991" stop-color="#afd4ff"/>
        <stop offset="0.122204" stop-color="#62a0ea"/>
        <stop offset="0.873306" stop-color="#62a0ea"/>
        <stop offset="0.955997" stop-color="#c0d5ea"/>
        <stop offset="1" stop-color="#62a0ea"/>
    </linearGradient>
    <path d="m 21.976562 12 c -5.527343 0 -9.976562 4.460938 -9.976562 10 v 86.03125 c 0 5.542969 4.449219 10 9.976562 10 h 84.042969 c 5.53125 0 9.980469 -4.457031 9.980469 -10 v -72.085938 c 0 -6.628906 -5.359375 -12 -11.972656 -12 h -46.027344 c -2.453125 0 -4.695312 -1.386718 -5.796875 -3.582031 l -1.503906 -2.992187 c -1.65625 -3.292969 -5.019531 -5.371094 -8.699219 -5.371094 z m 0 0" fill="#438de6"/>
    <path d="m 65.976562 36 c -2.746093 0 -5.226562 1.101562 -7.027343 2.890625 c -2.273438 2.253906 -5.382813 5.109375 -8.632813 5.109375 h -28.339844 c -5.527343 0 -9.976562 4.460938 -9.976562 10 v 54.03125 c 0 5.542969 4.449219 10 9.976562 10 h 84.042969 c 5.53125 0 9.980469 -4.457031 9.980469 -10 v -62.03125 c 0 -5.539062 -4.449219 -10 -9.980469 -10 z m 0 0" fill="url(#a)"/>
    <path d="m 65.976562 32 c -2.746093 0 -5.226562 1.101562 -7.027343 2.890625 c -2.273438 2.253906 -5.382813 5.109375 -8.632813 5.109375 h -28.339844 c -5.527343 0 -9.976562 4.460938 -9.976562 10 v 55.976562 c 0 5.539063 4.449219 10 9.976562 10 h 84.042969 c 5.53125 0 9.980469 -4.460937 9.980469 -10 v -63.976562 c 0 -5.539062 -4.449219 -10 -9.980469 -10 z m 0 0" fill="#a4caee"/>
    <path d="m 63.726562 64 c -0.539062 0.007812 -1.070312 0.054688 -1.601562 0.125 c -4.21875 0.570312 -8.046875 3.054688 -10.25 6.875 c -0.554688 0.953125 -0.226562 2.179688 0.734375 2.726562 c 0.953125 0.554688 2.179687 0.226563 2.726563 -0.726562 c 2.109374 -3.648438 6.257812 -5.578125 10.398437 -4.851562 c 3.359375 0.59375 6.117187 2.828124 7.429687 5.851562 h -3.164062 c -1.101562 0 -2 0.898438 -2 2 s 0.898438 2 2 2 h 8 c 1.101562 0 2 -0.898438 2 -2 v -8 c 0 -1.101562 -0.898438 -2 -2 -2 s -2 0.898438 -2 2 v 2.796875 c -2.046875 -3.40625 -5.5 -5.867187 -9.570312 -6.585937 c -0.90625 -0.15625 -1.8125 -0.226563 -2.703126 -0.210938 z m -13.726562 14 c -1.101562 0 -2 0.898438 -2 2 v 8 c 0 1.101562 0.898438 2 2 2 s 2 -0.898438 2 -2 v -2.789062 c 2.28125 3.789062 6.265625 6.335937 10.78125 6.734374 c 5.414062 0.476563 10.625 -2.234374 13.34375 -6.945312 c 0.554688 -0.953125 0.226562 -2.179688 -0.734375 -2.726562 c -0.453125 -0.273438 -1 -0.34375 -1.515625 -0.203126 c -0.515625 0.132813 -0.953125 0.46875 -1.21875 0.929688 c -1.945312 3.367188 -5.648438 5.296875 -9.53125 4.960938 c -3.664062 -0.320313 -6.828125 -2.617188 -8.289062 -5.960938 h 3.164062 c 1.101562 0 2 -0.898438 2 -2 s -0.898438 -2 -2 -2 z m 0 0" fill="#438de6"/>
</svg>
