<?xml version="1.0" encoding="UTF-8"?>
<svg height="128px" viewBox="0 0 128 128" width="128px" xmlns="http://www.w3.org/2000/svg" xmlns:xlink="http://www.w3.org/1999/xlink">
    <linearGradient id="a" gradientTransform="matrix(0.45451 0 0 0.455522 -1210.292114 616.172607)" gradientUnits="userSpaceOnUse" x1="2689.251953" x2="2918.069824" y1="-1106.802979" y2="-1106.802979">
        <stop offset="0" stop-color="#62a0ea"/>
        <stop offset="0.0576991" stop-color="#afd4ff"/>
        <stop offset="0.122204" stop-color="#62a0ea"/>
        <stop offset="0.873306" stop-color="#62a0ea"/>
        <stop offset="0.955997" stop-color="#c0d5ea"/>
        <stop offset="1" stop-color="#62a0ea"/>
    </linearGradient>
    <path d="m 21.976562 12 c -5.527343 0 -9.976562 4.460938 -9.976562 10 v 86.03125 c 0 5.542969 4.449219 10 9.976562 10 h 84.042969 c 5.53125 0 9.980469 -4.457031 9.980469 -10 v -72.085938 c 0 -6.628906 -5.359375 -12 -11.972656 -12 h -46.027344 c -2.453125 0 -4.695312 -1.386718 -5.796875 -3.582031 l -1.503906 -2.992187 c -1.65625 -3.292969 -5.019531 -5.371094 -8.699219 -5.371094 z m 0 0" fill="#438de6"/>
    <path d="m 65.976562 36 c -2.746093 0 -5.226562 1.101562 -7.027343 2.890625 c -2.273438 2.253906 -5.382813 5.109375 -8.632813 5.109375 h -28.339844 c -5.527343 0 -9.976562 4.460938 -9.976562 10 v 54.03125 c 0 5.542969 4.449219 10 9.976562 10 h 84.042969 c 5.53125 0 9.980469 -4.457031 9.980469 -10 v -62.03125 c 0 -5.539062 -4.449219 -10 -9.980469 -10 z m 0 0" fill="url(#a)"/>
    <path d="m 65.976562 32 c -2.746093 0 -5.226562 1.101562 -7.027343 2.890625 c -2.273438 2.253906 -5.382813 5.109375 -8.632813 5.109375 h -28.339844 c -5.527343 0 -9.976562 4.460938 -9.976562 10 v 55.976562 c 0 5.539063 4.449219 10 9.976562 10 h 84.042969 c 5.53125 0 9.980469 -4.460937 9.980469 -10 v -63.976562 c 0 -5.539062 -4.449219 -10 -9.980469 -10 z m 0 0" fill="#a4caee"/>
    <g fill="#438de6">
        <path d="m 55.898438 64 c -2.164063 0.054688 -3.898438 1.828125 -3.898438 4 c 0 1.429688 0.765625 2.75 2 3.460938 v 20.539062 h 4 v -20.539062 c 1.234375 -0.710938 2 -2.03125 2 -3.460938 c 0 -2.210938 -1.789062 -4 -4 -4 c -0.03125 0 -0.0625 0 -0.09375 0 z m 0.101562 2 c 1.101562 0 2 0.898438 2 2 s -0.898438 2 -2 2 s -2 -0.898438 -2 -2 s 0.898438 -2 2 -2 z m 0 0"/>
        <path d="m 70 68 v 8 c 0 1.6875 -0.375 2.585938 -0.882812 3.101562 c -0.507813 0.507813 -1.382813 0.898438 -3.117188 0.898438 h -0.007812 l -4.039063 0.03125 c -2.140625 0.015625 -4.054687 1.023438 -5.492187 2.453125 c -1.4375 1.421875 -2.460938 3.351563 -2.460938 5.515625 h 4 c 0 -0.835938 0.476562 -1.882812 1.28125 -2.6875 c 0.804688 -0.796875 1.875 -1.28125 2.703125 -1.289062 l 4.015625 -0.023438 c 2.382812 0 4.507812 -0.609375 5.96875 -2.101562 c 1.460938 -1.484376 2.03125 -3.585938 2.03125 -5.898438 v -8 z m 0 0"/>
        <path d="m 78 72 h -12 l 6 -8 z m 0 0"/>
    </g>
</svg>
