<?xml version="1.0" encoding="UTF-8"?>
<svg height="128px" viewBox="0 0 128 128" width="128px" xmlns="http://www.w3.org/2000/svg" xmlns:xlink="http://www.w3.org/1999/xlink">
    <linearGradient id="a" gradientTransform="matrix(0.45451 0 0 0.455522 -1210.292114 616.172607)" gradientUnits="userSpaceOnUse" x1="2689.251953" x2="2918.069824" y1="-1106.802979" y2="-1106.802979">
        <stop offset="0" stop-color="#62a0ea"/>
        <stop offset="0.0576991" stop-color="#afd4ff"/>
        <stop offset="0.122204" stop-color="#62a0ea"/>
        <stop offset="0.873306" stop-color="#62a0ea"/>
        <stop offset="0.955997" stop-color="#c0d5ea"/>
        <stop offset="1" stop-color="#62a0ea"/>
    </linearGradient>
    <path d="m 21.976562 12 c -5.527343 0 -9.976562 4.460938 -9.976562 10 v 86.03125 c 0 5.542969 4.449219 10 9.976562 10 h 84.042969 c 5.53125 0 9.980469 -4.457031 9.980469 -10 v -72.085938 c 0 -6.628906 -5.359375 -12 -11.972656 -12 h -46.027344 c -2.453125 0 -4.695312 -1.386718 -5.796875 -3.582031 l -1.503906 -2.992187 c -1.65625 -3.292969 -5.019531 -5.371094 -8.699219 -5.371094 z m 0 0" fill="#438de6"/>
    <path d="m 65.976562 36 c -2.746093 0 -5.226562 1.101562 -7.027343 2.890625 c -2.273438 2.253906 -5.382813 5.109375 -8.632813 5.109375 h -28.339844 c -5.527343 0 -9.976562 4.460938 -9.976562 10 v 54.03125 c 0 5.542969 4.449219 10 9.976562 10 h 84.042969 c 5.53125 0 9.980469 -4.457031 9.980469 -10 v -62.03125 c 0 -5.539062 -4.449219 -10 -9.980469 -10 z m 0 0" fill="url(#a)"/>
    <path d="m 65.976562 32 c -2.746093 0 -5.226562 1.101562 -7.027343 2.890625 c -2.273438 2.253906 -5.382813 5.109375 -8.632813 5.109375 h -28.339844 c -5.527343 0 -9.976562 4.460938 -9.976562 10 v 55.976562 c 0 5.539063 4.449219 10 9.976562 10 h 84.042969 c 5.53125 0 9.980469 -4.460937 9.980469 -10 v -63.976562 c 0 -5.539062 -4.449219 -10 -9.980469 -10 z m 0 0" fill="#a4caee"/>
    <path d="m 69.570312 64.164062 c 1.117188 1.023438 2.445313 2.414063 4.359376 4.335938 c 0.5625 0.5625 0.78125 1.492188 0.351562 2.492188 c -0.195312 0.5 -0.078125 1.0625 0.304688 1.4375 c 0.523437 0.507812 1.359374 0.507812 1.890624 0 c 0.523438 -0.523438 1.585938 -0.171876 1.84375 0.085937 l 0.960938 0.960937 v -0.007812 c 0.789062 0.78125 0.789062 2.054688 0 2.835938 l -4.726562 4.734374 c -0.78125 0.78125 -2.054688 0.78125 -2.835938 0 l -0.921875 -1.046874 c -0.523437 -0.523438 -0.523437 -1.367188 0 -1.890626 c 0.523437 -0.523437 0.523437 -1.367187 0 -1.890624 c -0.523437 -0.507813 -1.492187 -0.59375 -2.023437 -0.085938 l -2.34375 2.210938 l -4.882813 -4.890626 s 1.679687 -1.65625 2.171875 -2.132812 c 1.234375 -1.25 0.125 -2.304688 -0.421875 -2.835938 c -1.328125 -1.320312 -4.078125 -1.84375 -5.953125 -1.765624 c -0.585938 0.023437 -1.117188 -0.335938 -1.320312 -0.882813 c -0.195313 -0.554687 -0.007813 -1.171875 0.46875 -1.523437 c 5.507812 -2.320313 10.90625 -2.320313 13.078124 -0.140626 z m -4.898437 16.070313 l -10.578125 10.554687 c -0.742188 0.75 -1.34375 1.25 -2.039062 1.25 c -2.179688 -0.054687 -3.945313 -1.820312 -4 -4 c 0 -1.0625 0.257812 -1.453124 1.007812 -2.195312 l 10.59375 -10.546875 z m 0 0" fill="#438de6"/>
</svg>
